<svg xmlns="http://www.w3.org/2000/svg" width="55.64" height="57.732" viewBox="0 0 55.64 57.732">
  <g id="Group_328" data-name="Group 328" transform="translate(-1.578 7.032) rotate(-8)">
    <path id="Path_2162" data-name="Path 2162" d="M6.591,0,0,45.318l39.983,6.308,7.5-47.648ZM37.868,49.224,1.8,43.977,8.043,1.029,44.273,5.19Z" transform="translate(3.042 0)" fill="#f8f0d4"/>
    <path id="Path_2163" data-name="Path 2163" d="M.3,0,0,2.044,15.563,4.308,15.9,2.016Z" transform="translate(20.777 9.142)" fill="#f8f0d4"/>
    <path id="Path_2164" data-name="Path 2164" d="M.3,0,0,2.044,10.737,3.606l.334-2.292Z" transform="translate(19.806 15.817)" fill="#f8f0d4"/>
    <path id="Path_2165" data-name="Path 2165" d="M.3,0,0,2.044,20.388,5.01l.333-2.292Z" transform="translate(18.835 22.492)" fill="#f8f0d4"/>
    <path id="Path_2166" data-name="Path 2166" d="M.3,0,0,2.044,15.563,4.308,15.9,2.016Z" transform="translate(17.864 29.168)" fill="#f8f0d4"/>
    <path id="Path_2167" data-name="Path 2167" d="M.3,0,0,2.044,12.667,3.887,13,1.594Z" transform="translate(16.894 35.843)" fill="#f8f0d4"/>
    <path id="Path_2168" data-name="Path 2168" d="M.3,0,0,2.044l2.818.41L3.152.162Z" transform="translate(14.782 8.269)" fill="#f8f0d4"/>
    <path id="Path_2169" data-name="Path 2169" d="M.3,0,0,2.044l2.818.41L3.151.162Z" transform="translate(13.811 14.945)" fill="#f8f0d4"/>
    <path id="Path_2170" data-name="Path 2170" d="M.3,0,0,2.044l2.818.41L3.152.162Z" transform="translate(12.84 21.62)" fill="#f8f0d4"/>
    <path id="Path_2171" data-name="Path 2171" d="M.3,0,0,2.044l2.818.41L3.151.162Z" transform="translate(11.869 28.296)" fill="#f8f0d4"/>
    <path id="Path_2172" data-name="Path 2172" d="M.3,0,0,2.044l2.818.41L3.151.162Z" transform="translate(10.899 34.971)" fill="#f8f0d4"/>
    <path id="Path_2173" data-name="Path 2173" d="M0,.155,2.317,0l.457,17.184-.922,2.952L.522,16.857Z" transform="translate(0 11.34)" fill="#f8f0d4"/>
  </g>
</svg>
