<svg xmlns="http://www.w3.org/2000/svg" width="318.159" height="318.083"><path data-name="Intersection 1" d="M313.321 317.749l4.463-4.974zm4.463-122.546L207.821 317.748zm-254.636 59.32L6.415 317.748zm240.583 63.225l14.053-15.661zm-9.591 0l23.645-26.35zm-95.908 0l56.314-62.758zM72.32 254.99l-56.314 62.758zm212.23 62.758l33.234-37.037zm33.234-111.854l-100.37 111.854zM274.96 317.748l42.824-47.725zm-9.591 0l52.416-58.413zM81.911 254.992l-56.313 62.756zm235.874-38.409l-90.778 101.165zm-62 101.165l62-69.1zm-67.137 0l56.312-62.755zm57.546 0l71.6-79.788zM91.507 254.993l-56.312 62.755zm145.1 62.755l81.188-90.479zm-135.514-62.759l-56.311 62.754zm77.963 62.753l56.31-62.753zm-68.372-62.753l-56.309 62.752zm9.591 0L63.967 317.74zm49.191 62.75l56.308-62.75zm-39.6-62.75l-56.307 62.75zm30.01 62.75l56.307-62.75zm-9.589 0l56.307-62.75zm-9.59 0l56.306-62.749zm-1.239-62.749l-56.306 62.749zm-8.353 62.749l56.306-62.749zm-9.59 0l56.3-62.748zm27.533-62.748l-56.3 62.748zm-37.123 62.747l56.3-62.747zm-9.59 0l56.3-62.747zM.372 313.797l62.775-69.958zm0-10.689l62.774-69.957zm0-10.688l62.772-69.955zm0-10.688l62.771-69.953zm0-10.688l62.769-69.951zm0-10.689l62.767-69.949zm254.64-5.882l62.772-69.955zM.372 249.667l62.766-69.948zm254.674-5.919l62.739-69.918zM.372 238.98l62.764-69.946zm254.674-5.919l62.739-69.917zM.372 228.291l62.762-69.944zm254.674-5.92l62.739-69.917zM.372 217.603l62.761-69.942zm254.655-5.9l62.758-69.939zM.372 206.915l62.759-69.94zm254.654-5.9l62.759-69.94zM.372 196.224l62.758-69.939zm254.653-5.9l62.76-69.941zM.372 185.531l62.739-69.918zm254.651-5.9l62.762-69.943zM.372 174.838l62.739-69.918zm254.65-5.894l62.763-69.945zM.372 164.15l62.739-69.918zm254.649-5.892l62.764-69.946zm-254.649-4.8l62.739-69.917zm254.647-5.889l62.766-69.947zm-254.647-4.8l62.739-69.917zm254.646-5.889l62.767-69.949zM.372 132.08L118.601.322zm254.645-5.886l62.768-69.95zm-254.645-4.8L109.012.323zm254.643-5.886l62.77-69.952zm-254.643-4.8L99.419.328zm254.642-5.884l62.771-69.954zm-254.642-4.8L89.828.333zm254.641-5.884l62.772-69.955zM.372 89.335l79.863-89zm254.639-5.881l62.774-69.951zM.372 78.647L70.644.334zm254.638-5.88l62.775-69.958zM.372 67.957L61.053.332zm253.732-4.87L310.418.329zm-9.591 0L300.826.331zm-9.589 0L291.236.332zm-9.592 0L281.643.333zm-9.591 0L272.05.334zm-9.591 0L262.458.336zm-9.59 0L252.867.337zm-9.592 0L243.274.338zm-9.591 0l56.3-62.748zm-9.592 0L224.085.34zm-9.59 0l56.3-62.746zm-9.591 0l56.3-62.746zm-9.591 0l56.3-62.746zm-9.591 0L185.722.34zm-9.591 0L176.131.34zm-9.591 0L166.54.339zm-9.591 0l56.3-62.748zm-9.591 0L147.364.338zm-9.591 0L137.775.336zm-9.591 0L128.187.333zM.368 57.271L51.46.333zm0-10.689l41.5-46.25zm0-10.687L32.28.332zm0-10.689L22.688.332zm0-10.688L13.097.332zm0-10.688L3.507.33z" fill="none" stroke="#245991" stroke-miterlimit="10"/></svg>