<svg xmlns="http://www.w3.org/2000/svg" xmlns:xlink="http://www.w3.org/1999/xlink" width="762.188" height="678.862" viewBox="0 0 762.188 678.862">
  <defs>
    <clipPath id="clip-path">
      <path id="Path_913" data-name="Path 913" d="M794.582,843.187l-6.33,9.833,6.33,9.437,5.7,31.49v47.8l14.093,22.4,4.972-22.4-10.275-47.8L798.63,862.568l.529-10.407Z" transform="translate(-788.253 -843.187)" fill="#0a315a"/>
    </clipPath>
    <linearGradient id="linear-gradient" x1="58.644" y1="1.031" x2="59.229" y2="0.44" gradientUnits="objectBoundingBox">
      <stop offset="0" stop-color="#f5ba89"/>
      <stop offset="1" stop-color="#eda364"/>
    </linearGradient>
    <linearGradient id="linear-gradient-2" x1="353.014" y1="0.493" x2="352.243" y2="0.895" gradientUnits="objectBoundingBox">
      <stop offset="0" stop-color="#f5ba89"/>
      <stop offset="1" stop-color="#ffd4b0"/>
    </linearGradient>
    <linearGradient id="linear-gradient-3" x1="144.148" y1="0.473" x2="144.148" y2="0.075" gradientUnits="objectBoundingBox">
      <stop offset="0" stop-color="#141414"/>
      <stop offset="0.962" stop-color="#826d62"/>
    </linearGradient>
    <linearGradient id="linear-gradient-4" x1="89.474" y1="0.687" x2="89.474" y2="0.424" gradientUnits="objectBoundingBox">
      <stop offset="0" stop-color="#a68e80"/>
      <stop offset="0.602" stop-color="#0a0a0a"/>
    </linearGradient>
    <linearGradient id="linear-gradient-5" x1="44.304" y1="0.915" x2="44.268" y2="0.302" gradientUnits="objectBoundingBox">
      <stop offset="0" stop-color="#dedede"/>
      <stop offset="1" stop-color="#dbdbdb"/>
    </linearGradient>
    <linearGradient id="linear-gradient-6" x1="41.46" y1="0.349" x2="41.275" y2="0.008" gradientUnits="objectBoundingBox">
      <stop offset="0" stop-color="#ededed"/>
      <stop offset="1" stop-color="#cbcbcb"/>
    </linearGradient>
    <linearGradient id="linear-gradient-7" x1="43.265" y1="0.162" x2="43.265" y2="0.017" gradientUnits="objectBoundingBox">
      <stop offset="0" stop-color="#e6e6e6"/>
      <stop offset="1" stop-color="#bdbdbd"/>
    </linearGradient>
    <linearGradient id="linear-gradient-8" x1="0.5" x2="0.5" y2="1" gradientUnits="objectBoundingBox">
      <stop offset="0" stop-color="#fff"/>
      <stop offset="1" stop-color="#fff" stop-opacity="0"/>
    </linearGradient>
    <linearGradient id="linear-gradient-10" x1="0.005" y1="0.586" x2="1.006" y2="0.609" gradientUnits="objectBoundingBox">
      <stop offset="0" stop-color="#e1eefc"/>
      <stop offset="1" stop-color="#c1d5ea"/>
    </linearGradient>
  </defs>
  <g id="Group_295" data-name="Group 295" transform="translate(-232 -2037.841)">
    <g id="Group_164" data-name="Group 164" transform="translate(0 -118)">
      <path id="Path_1098" data-name="Path 1098" d="M-820.944-1891.654c39.434-89.437,81.2-127.177,206.732-119.471s272.031,54.873,362.229,209.829.119,172.371-80.633,218.395-132.2,116.528-273.646,117.087-281.872-127.551-318.263-246.494S-860.377-1802.217-820.944-1891.654Z" transform="matrix(0.999, -0.035, 0.035, 0.999, 1259.078, 4204.569)" fill="none" stroke="#b1cfef" stroke-width="1"/>
      <path id="Path_1083" data-name="Path 1083" d="M-820.944-1891.654c39.434-89.437,81.2-127.177,206.732-119.471s272.031,54.873,362.229,209.829.119,172.371-80.633,218.395-132.2,116.528-273.646,117.087-281.872-127.551-318.263-246.494S-860.377-1802.217-820.944-1891.654Z" transform="translate(1198.738 4233.638)" fill="#e1eefc"/>
      <path id="Path_1128" data-name="Path 1128" d="M381,0C591.42,0,762,5.373,762,12S695.294,30.7,484.874,30.7,0,18.627,0,12,170.58,0,381,0Z" transform="translate(232 2804)" fill="#e1eefc"/>
      <g id="Group_162" data-name="Group 162" transform="translate(275.363 2326.604)">
        <g id="Chair_3_1" transform="translate(155.95 210.85)">
          <path id="Path_892" data-name="Path 892" d="M846.059,1004.094,814.1,1120.265h4.41l39.991-111.6Z" transform="translate(-797.412 -842.043)" fill="#a5a5a5"/>
          <path id="Path_893" data-name="Path 893" d="M719.5,1003.324l31.965,117.053h-4.41l-39.99-114.249Z" transform="translate(-567.712 -842.155)" fill="#a5a5a5"/>
          <path id="Path_894" data-name="Path 894" d="M772.768,1010.155l5.484,109.8h4.513l.656-109.8Z" transform="translate(-674.973 -841.157)" fill="#a5a5a5"/>
          <path id="Path_895" data-name="Path 895" d="M836.183,973.141c-9.651-40.38-33.331-110.448-77.634-110.448-77,0-47.695,139.639-35.342,154.29s38.612,25.128,72.858,25.128c45.455,0,78.264-7.652,92.448-21.092S845.833,1013.523,836.183,973.141Z" transform="translate(-707.334 -862.693)" fill="#7da3cb"/>
        </g>
        <g id="LegsType_1_2" transform="translate(199.085 331.106)">
          <path id="Path_896" data-name="Path 896" d="M766.566,988.677l-.689-12.069,6.759-2.8,46.758-2.373,17.04-3.266,2.656,6.7-15.713,7.311Z" transform="translate(-765.877 -967.546)" fill="#191919"/>
          <path id="Path_897" data-name="Path 897" d="M771.833,970.255a7.736,7.736,0,0,1,2.289,7.289l2.092-.992s1.506-4.135,0-7.063C774.111,969.886,771.833,970.255,771.833,970.255Z" transform="translate(-710.496 -967.353)" fill="#063362"/>
          <path id="Path_898" data-name="Path 898" d="M767.265,974.986s1.815-5.476-2.031-6.741l.7-.62s4.4,1.157,1.96,7.324Z" transform="translate(-694.678 -967.625)" fill="#063362"/>
          <path id="Path_899" data-name="Path 899" d="M787.736,974.633c0,1.356-.615,2.455-1.378,2.455s-1.378-1.1-1.378-2.455.617-2.455,1.378-2.455S787.736,973.277,787.736,974.633Z" transform="translate(-736.418 -966.96)" fill="#969696"/>
          <path id="Path_900" data-name="Path 900" d="M746.53,974.048s53.016,7.521,65.458,15.716c4.651,38.724,13.212,131.048,13.212,131.048l-3.541,1.093s-30.681-63.054-31.929-113.828c-27.037-1.764-57.391-4.109-57.391-4.109s-38.452-15.545-34.239-24.21C700.06,975.715,738.876,978.608,746.53,974.048Z" transform="translate(-673.943 -966.687)" fill="#063362"/>
          <path id="Path_901" data-name="Path 901" d="M790.235,1119.009l1.185-.367c-13.625-44.056-26.7-112.577-27.585-117.257l2.852-4.283h-3.744l1.434-3.356-65.308-6.056-.114,1.235,63.611,5.9-1.5,3.517h3.307l-1.849,2.775.047.249C762.7,1002.082,776.172,1073.537,790.235,1119.009Z" transform="translate(-641.513 -964.695)" fill="#002348"/>
          <path id="Path_902" data-name="Path 902" d="M794.162,976.462s32.852,5.292,42.729,13.487c10.321,30.471-1.85,129.894-1.85,129.894l-3.067,4.464s-26.792-64.872-15.624-117.039c-28.847,0-58.188-7.2-58.188-7.2s-11.448-10.31-7.64-18.747C764.186,978.25,795.7,977.023,794.162,976.462Z" transform="translate(-749.345 -966.334)" fill="#002a57"/>
          <path id="Path_903" data-name="Path 903" d="M823.408,1122.951l1.152-.458c-22.042-55.456-10.306-122.742-10.186-123.415l.133-.736-.747.006c-.448,0-43.122.24-54.8-5.593a7.7,7.7,0,0,0,3.867-4.612c1.39-4.787-2.214-10.2-2.369-10.426l-1.028.694c.034.052,3.434,5.163,2.2,9.388a6.946,6.946,0,0,1-4.247,4.35l-1.066.464.979.627c9.707,6.22,49.59,6.389,55.733,6.349C811.814,1007.093,802.482,1070.3,823.408,1122.951Z" transform="translate(-740.393 -966.151)" fill="#002348"/>
          <path id="Path_904" data-name="Path 904" d="M746.614,1101.571l13.082,1.534,2.049,2.929H741.781l1.965-3.359Z" transform="translate(-660.918 -948.063)" fill="#ad6e00"/>
          <path id="Path_905" data-name="Path 905" d="M680.226,1101.571l23.922,1.534,2.049,2.929H675.4l1.965-3.359Z" transform="translate(-529.29 -948.063)" fill="#ad6e00"/>
          <path id="Path_906" data-name="Path 906" d="M823.733,981.459s-1.37-4.607-.476-7.447a11.4,11.4,0,0,1,3.257-.973s-.607,5.686,0,7.621Z" transform="translate(-818.717 -966.834)" fill="#063362"/>
          <path id="Path_907" data-name="Path 907" d="M803.74,972.353l2.431,5.825,3.555-.143s-1.238-3.542-2-5.857C806.24,972.288,803.74,972.353,803.74,972.353Z" transform="translate(-779.907 -966.96)" fill="#063362"/>
          <path id="Path_908" data-name="Path 908" d="M793.851,981.785l20.342-2.644c2.539-.331,5.082-.612,7.465-.886l3.439-.368,3.087-.286c.958-.056,1.835-.132,2.614-.2s1.459-.094,2.019-.129l1.764-.117-1.764-.124c-1.124-.075-2.733-.132-4.665-.125-1.93.048-4.185.086-6.592.264s-4.968.436-7.521.743c-2.55.339-5.1.7-7.471,1.117-2.378.4-4.578.872-6.468,1.249s-3.446.794-4.539,1.054S793.851,981.785,793.851,981.785Z" transform="translate(-793.43 -966.27)" fill="#2b1700"/>
        </g>
        <g id="TorsoType_1" transform="translate(185.867 154.372)">
          <g id="TorsoType_Seating_1" transform="translate(15.703)">
            <path id="Path_909" data-name="Path 909" d="M802.516,816.127l.089,35.151s9.065,8.6,14.77,8.6c4.768,0,13.877-7.817,13.877-7.817V813.412Z" transform="translate(-802.516 -813.412)" fill="#f5ba89"/>
          </g>
          <path id="Path_910" data-name="Path 910" d="M780.642,994.737a173.844,173.844,0,0,1,25.97-3.574c15.292-.944,47.853-.633,45.331-6.139-.521-1.135-3.453-3.228-3.453-3.228s-.231-5.324-1.316-8.155c-1-2.608-2.026-5.448-3.052-8.5a224.562,224.562,0,0,1-10.493-48.388c-1.25-12.212,7.3-14.857-7.709-67.019-2.855-2.374-8.425-4.276-14.055-5.7l-15.535,5.358-12.886-4.819-16.021,5.956s.234,102.853,13.219,137.073C777.114,990.893,776.967,993.892,780.642,994.737Z" transform="translate(-767.423 -808.941)" fill="#235890"/>
          <path id="Path_911" data-name="Path 911" d="M798.813,847.148l4.436-9.074,20.168,5.86,8.346-5.86,4.315,8.006-12.07,10.194Z" transform="translate(-787.395 -809.81)" fill="#fff"/>
          <g id="Group_153" data-name="Group 153" transform="translate(29.693 34.123)">
            <path id="Path_912" data-name="Path 912" d="M794.58,843.187l-6.33,9.833,6.33,9.437,5.7,31.49V941.86l13.96,22.063,5.107-22.063-10.278-47.914-10.441-31.378.529-10.407Z" transform="translate(-788.25 -843.187)" fill="#012245"/>
            <g id="Group_152" data-name="Group 152" transform="translate(0)" clip-path="url(#clip-path)">
              <rect id="Rectangle_153" data-name="Rectangle 153" width="50.609" height="1.833" transform="matrix(-0.977, -0.214, 0.214, -0.977, 31.302, 11.134)" fill="#0a315a"/>
              <rect id="Rectangle_154" data-name="Rectangle 154" width="52.297" height="1.833" transform="translate(35.328 26.947) rotate(-164.166)" fill="#0a315a"/>
              <rect id="Rectangle_155" data-name="Rectangle 155" width="52.298" height="1.833" transform="translate(39.407 42.774) rotate(-164.165)" fill="#0a315a"/>
              <rect id="Rectangle_156" data-name="Rectangle 156" width="50.608" height="1.833" transform="matrix(-0.977, -0.214, 0.214, -0.977, 42.658, 58.609)" fill="#0a315a"/>
              <rect id="Rectangle_157" data-name="Rectangle 157" width="52.296" height="1.833" transform="translate(47.565 74.425) rotate(-164.165)" fill="#0a315a"/>
              <rect id="Rectangle_158" data-name="Rectangle 158" width="54.653" height="1.834" transform="translate(51.59 90.212) rotate(-160.205)" fill="#0a315a"/>
              <rect id="Rectangle_159" data-name="Rectangle 159" width="50.609" height="1.833" transform="translate(54.898 102.664) rotate(-167.629)" fill="#0a315a"/>
              <rect id="Rectangle_160" data-name="Rectangle 160" width="52.297" height="1.833" transform="translate(59.804 121.902) rotate(-164.166)" fill="#0a315a"/>
            </g>
          </g>
        </g>
        <g id="HandsType_1_2" transform="translate(155.229 195.161)">
          <path id="Path_918" data-name="Path 918" d="M666.759,909.751s20.308-3.016,21.19-3.016,9.48,3.016,9.48,3.016l5.315,6.636a4.323,4.323,0,0,1-5.094-.909,6.336,6.336,0,0,1,.687,1.374s-1.641.754-3.772-1.374c.513.734.953,1.522.953,1.522s-2.791.534-4.408-1.376a5.139,5.139,0,0,0,.7,1.265s-3.934.791-6.066-1.852c-1.175-1.248-1.878-1.984-1.878-1.984l-4.145,3.836H666.2Z" transform="translate(-471.449 -840.573)" fill="#f5ba89"/>
          <path id="Path_919" data-name="Path 919" d="M752.856,849s41.066,55.068,42.856,57.859c-2.618,5.731-23.527,18.457-23.527,18.457s-9.193-13.224-11.093-18.647c.951-16.8-1.2-24.018-2.637-30.519C755.29,861.872,752.856,849,752.856,849Z" transform="translate(-663.723 -849.004)" fill="#003a78"/>
          <path id="Path_920" data-name="Path 920" d="M782.381,910.833s-8.91,1.512-27.14-3.613c-5.942-1.67-28.59-9.174-35.97-7.706s-14.654,4.144-23.527,18.457c51.952,0,59.051-.532,78.485-.532,3.7,0,6.929.532,7.6.532C786.017,917.971,785.174,913.24,782.381,910.833Z" transform="translate(-587.281 -841.655)" fill="url(#linear-gradient)"/>
          <path id="Path_921" data-name="Path 921" d="M744.113,918.209s7.127-20.293,26.743-20.512c6.171.88,7.053,2.779,7.053,2.779s-19.321,6.726-25.419,17.844C746.08,918.32,744.113,918.209,744.113,918.209Z" transform="translate(-635.899 -841.893)" fill="#fff"/>
          <path id="Path_922" data-name="Path 922" d="M682.929,910.837s12.616,1.657,13.9,1.837a3.312,3.312,0,0,1,0,3.616h-13.9Z" transform="translate(-485.248 -839.974)" fill="url(#linear-gradient-2)"/>
          <g id="Group_163" data-name="Group 163" transform="translate(0 0.836)">
            <g id="Group_163-2" data-name="Group 163" transform="translate(0)">
              <path id="Path_1072" data-name="Path 1072" d="M345.007,325.535s-36.409,52.583-29.753,75.6c27.133.319,26.441-12.876,26.534-16.457C347.968,376.234,354.58,340.159,345.007,325.535Z" transform="translate(-314.344 -325.535)" fill="#003a78"/>
              <path id="Path_1073" data-name="Path 1073" d="M315.935,378.2s9.909,8.406,10.118,13.5c-6.569.481-10.178.652-10.178.652A27.109,27.109,0,0,1,315.935,378.2Z" transform="translate(-314.965 -316.755)" fill="#fff"/>
              <path id="Path_1074" data-name="Path 1074" d="M403.551,390.707H390.074v-3.152s12.421-.288,13.117.088S404.367,390.707,403.551,390.707Z" transform="translate(-301.546 -315.104)" fill="#d4925d"/>
              <path id="Path_1078" data-name="Path 1078" d="M382.249,385.4s17.243-3.073,18.011-3.073,8.7,3.073,8.7,3.073l4.629,5.779a3.765,3.765,0,0,1-4.436-.789,5.445,5.445,0,0,1,.6,1.2s-1.429.657-3.284-1.2c.448.639.831,1.324.831,1.324a4.341,4.341,0,0,1-3.84-1.2,4.532,4.532,0,0,0,.614,1.1s-3.429.688-5.285-1.616c-1.024-1.088-1.637-1.727-1.637-1.727l-3.61,3.343H381.768Z" transform="translate(-303.03 -316.019)" fill="#f5ba89"/>
              <path id="Path_1079" data-name="Path 1079" d="M394.045,386.511s-7.761,1.32-23.64-3.146c-5.175-1.453-21.706-8.373-28.134-7.093s-18.807,3.994-26.534,16.457c45.25,0,54.282-.463,71.206-.463,3.227,0,6.037.466,6.622.466C397.212,392.732,396.478,388.609,394.045,386.511Z" transform="translate(-314.827 -317.129)" fill="#f5ba89"/>
              <path id="Path_1080" data-name="Path 1080" d="M315.737,392.8a35.194,35.194,0,0,1,26.534-16.458c7.349-1.792,8.261.767,8.261.767s-21.024,8.387-23.71,15.681C320.678,392.793,315.737,392.8,315.737,392.8Z" transform="translate(-314.827 -317.201)" fill="#fff"/>
            </g>
          </g>
        </g>
        <g id="EarsStyle_1" transform="translate(177.987 121.045)">
          <path id="Path_923" data-name="Path 923" d="M849.62,793.942c0,5.311-.864,9.613-4.011,9.613s-7.38-4.3-7.38-9.613,2.952-9.61,6.1-9.61S849.62,788.635,849.62,793.942Z" transform="translate(-838.228 -784.332)" fill="#e09767"/>
          <path id="Path_924" data-name="Path 924" d="M844.034,796.851a3.474,3.474,0,0,1-.969-1.907,3.271,3.271,0,0,1-.011-1.019,5.007,5.007,0,0,1,.092-.5c.018-.112.1-.344.147-.51a3.206,3.206,0,0,1,.186-.469c.055-.145.15-.289.22-.432a2.735,2.735,0,0,1,.591-.713,2.348,2.348,0,0,1,1.177-.575,1.968,1.968,0,0,1,.389-.034l1.319.052-.688-1.1a7.864,7.864,0,0,0-.779-1.014,6.561,6.561,0,0,0-.942-.878,3.407,3.407,0,0,0-.566-.36,2.884,2.884,0,0,0-.641-.277,2.527,2.527,0,0,0-.719-.138,2.4,2.4,0,0,0-.745.082,2.934,2.934,0,0,0-.667.3,2.508,2.508,0,0,0-.528.437,2.182,2.182,0,0,0-.407.508c-.112.18-.243.348-.336.532l-.236.566a3.391,3.391,0,0,0-.206.566c-.1.388-.19.776-.268,1.16.218-.335.425-.666.62-1s.449-.617.665-.919c.116-.143.253-.261.375-.391a1.487,1.487,0,0,1,.393-.332c.146-.072.261-.213.409-.245a1.821,1.821,0,0,1,.417-.117c.142.017.271-.045.411.018a1.321,1.321,0,0,1,.413.121,2.705,2.705,0,0,1,.8.523,5.729,5.729,0,0,1,.738.736,8.714,8.714,0,0,1,.626.845l.631-1.049a3.113,3.113,0,0,0-.74.072,3.911,3.911,0,0,0-.662.2,3.393,3.393,0,0,0-1.144.767,4.16,4.16,0,0,0-1,1.7,4.512,4.512,0,0,0-.147.614c-.027.205-.063.337-.084.6a3.493,3.493,0,0,0-.008.629,3.767,3.767,0,0,0,.264,1.225A3.143,3.143,0,0,0,844.034,796.851Z" transform="translate(-837.178 -783.948)" fill="#c97843"/>
          <path id="Path_925" data-name="Path 925" d="M781.934,793.942c0,5.311.877,9.613,4.062,9.613s7.47-4.3,7.47-9.613-2.987-9.61-6.171-9.61S781.934,788.635,781.934,793.942Z" transform="translate(-717.559 -784.332)" fill="#e09767"/>
          <path id="Path_926" data-name="Path 926" d="M787.112,796.852a3.148,3.148,0,0,0,1.629-1.72A3.747,3.747,0,0,0,789,793.9a3.328,3.328,0,0,0-.009-.633c-.022-.265-.057-.4-.086-.6a4.828,4.828,0,0,0-.151-.62,4.253,4.253,0,0,0-.24-.609,4.063,4.063,0,0,0-.779-1.094,3.445,3.445,0,0,0-1.153-.759,4.085,4.085,0,0,0-.666-.2,3.189,3.189,0,0,0-.74-.071l.633,1.058a8.786,8.786,0,0,1,.635-.846,5.715,5.715,0,0,1,.747-.735,2.334,2.334,0,0,1,.4-.3,1.675,1.675,0,0,1,.414-.222,1.372,1.372,0,0,1,.417-.123c.142-.061.273,0,.417-.018s.274.085.422.115.266.172.414.243a1.438,1.438,0,0,1,.4.33c.124.13.261.248.379.39.219.3.466.595.675.921s.407.664.628,1c-.08-.386-.171-.776-.275-1.167a3.418,3.418,0,0,0-.212-.567l-.24-.568c-.1-.183-.228-.354-.344-.533a2.084,2.084,0,0,0-.414-.508,2.369,2.369,0,0,0-.536-.434,2.739,2.739,0,0,0-.672-.292,2.368,2.368,0,0,0-.746-.081,2.535,2.535,0,0,0-.721.138,2.819,2.819,0,0,0-.646.275,3.36,3.36,0,0,0-.571.359,6.587,6.587,0,0,0-.954.878,7.818,7.818,0,0,0-.791,1.017l-.7,1.106,1.332-.048a1.993,1.993,0,0,1,.393.033,2.643,2.643,0,0,1,.43.115,2.684,2.684,0,0,1,.762.455,2.79,2.79,0,0,1,.6.709c.071.143.166.287.223.432a3.283,3.283,0,0,1,.189.468c.047.167.128.4.149.512a5.1,5.1,0,0,1,.093.5,3.148,3.148,0,0,1-.013,1.021A3.457,3.457,0,0,1,787.112,796.852Z" transform="translate(-718.145 -783.948)" fill="#c97843"/>
        </g>
        <path id="FaceColor_1" d="M793.107,762.566c-7.358,16.6-4.944,59.979,5.929,71.1s37.145,4.5,41.981-2.956,12.989-54.868,3.865-68.461c0,0-5.088-13.955-25.334-13.955C799.071,748.3,796.18,755.634,793.107,762.566Z" transform="translate(-603.075 -668.55)" fill="#f5ba89"/>
        <g id="Wrinkles" transform="translate(190.276 90.221)">
          <path id="Path_927" data-name="Path 927" d="M799.409,764.849l5.746-.717c1.72-.227,3.736-.423,5.888-.673,2.155-.232,4.455-.46,6.759-.614,2.3-.189,4.606-.347,6.767-.378,1.081-.033,2.125-.049,3.116-.036.992-.017,1.925.032,2.788.087.865.032,1.652.109,2.349.2a13.441,13.441,0,0,1,1.8.264l1.559.324-1.524-.473a13.482,13.482,0,0,0-1.789-.406l-1.112-.212c-.394-.06-.811-.088-1.245-.138-.869-.1-1.811-.191-2.809-.221-1-.06-2.054-.1-3.144-.073-2.181,0-4.5.119-6.819.276-2.314.193-4.62.456-6.779.722s-4.159.622-5.872.914C801.663,764.3,799.409,764.849,799.409,764.849Z" transform="translate(-792.591 -756.803)" fill="#dda577"/>
          <path id="Path_928" data-name="Path 928" d="M801.731,760.653l5.259-.75c1.573-.237,3.42-.448,5.39-.707s4.078-.484,6.188-.664c1.054-.084,2.108-.205,3.147-.261s2.063-.146,3.053-.147,1.947-.07,2.854-.037c.908.007,1.767.014,2.552.1a18.836,18.836,0,0,1,2.144.233,10.439,10.439,0,0,1,1.633.319l1.4.421L834,758.593a10.649,10.649,0,0,0-1.622-.461,13.473,13.473,0,0,0-2.155-.386,25.868,25.868,0,0,0-2.58-.235c-.918-.08-1.885-.079-2.887-.072-1-.016-2.032.062-3.083.1s-2.111.14-3.175.211c-2.121.217-4.235.481-6.21.771s-3.8.646-5.37.949C803.786,760.092,801.731,760.653,801.731,760.653Z" transform="translate(-794.419 -757.436)" fill="#dda577"/>
          <path id="Path_929" data-name="Path 929" d="M837.31,782.715a6.823,6.823,0,0,0-.7-.518,10.352,10.352,0,0,0-3.463-1.355,6.524,6.524,0,0,0-.87-.1,6.473,6.473,0,0,0,.7.518,10.263,10.263,0,0,0,1.671.834,10.406,10.406,0,0,0,1.794.519A6.643,6.643,0,0,0,837.31,782.715Z" transform="translate(-831.381 -754.032)" fill="#dda577"/>
          <path id="Path_930" data-name="Path 930" d="M838.2,784.477a8.071,8.071,0,0,0-.947-.14,12.536,12.536,0,0,0-4.075.371,7.981,7.981,0,0,0-.907.311,7.9,7.9,0,0,0,.948.141,12.28,12.28,0,0,0,2.052-.018,12.572,12.572,0,0,0,2.023-.354A7.914,7.914,0,0,0,838.2,784.477Z" transform="translate(-832.272 -753.513)" fill="#dda577"/>
          <path id="Path_931" data-name="Path 931" d="M795.46,782.647a3.094,3.094,0,0,0,.568-.018,4,4,0,0,0,2.077-.98.31.31,0,1,0-.194-.41,3.98,3.98,0,0,0-1.109.338,4.055,4.055,0,0,0-.966.643A3.1,3.1,0,0,0,795.46,782.647Z" transform="translate(-750.363 -753.964)" fill="#dda577"/>
          <path id="Path_932" data-name="Path 932" d="M794.917,784.477a2.89,2.89,0,0,0,.463.308,3.851,3.851,0,0,0,1.07.353,3.8,3.8,0,0,0,1.129.019,2.878,2.878,0,0,0,.537-.139,2.913,2.913,0,0,0-.462-.308,3.774,3.774,0,0,0-2.2-.371A2.945,2.945,0,0,0,794.917,784.477Z" transform="translate(-749.378 -753.512)" fill="#dda577"/>
          <path id="Path_933" data-name="Path 933" d="M813.2,773.155a7.477,7.477,0,0,0,.334-.862,11.626,11.626,0,0,0,.481-3.915,7.393,7.393,0,0,0-.116-.917,7.231,7.231,0,0,0-.335.862,11.62,11.62,0,0,0-.479,3.915A7.55,7.55,0,0,0,813.2,773.155Z" transform="translate(-786.101 -755.972)" fill="#dda577"/>
          <path id="Path_934" data-name="Path 934" d="M812.682,780.629a3.452,3.452,0,0,1,.862-.182,10.244,10.244,0,0,1,1.849-.024c.675.037,1.363.107,1.9.143l.654.033c.162,0,.258,0,.258,0a2.335,2.335,0,0,0-.212-.144,5.678,5.678,0,0,0-.587-.325,5.6,5.6,0,0,0-1.968-.493,4,4,0,0,0-2.031.383,2.338,2.338,0,0,0-.562.407A.929.929,0,0,0,812.682,780.629Z" transform="translate(-789.823 -754.196)" fill="#dda577"/>
        </g>
        <path id="Path_935" data-name="Path 935" d="M809.372,807.57c2.612,0,4.542-.793,5.737-2.356,2.186-2.856.994-7.178.942-7.36l-.164-.574h-6.646l.245-16.5,6.2-3.643-.8-1.363-6.97,4.093-.282,18.995h7.02c.211,1.136.5,3.7-.807,5.4-.9,1.174-2.414,1.726-4.613,1.731l-.018,1.58Z" transform="translate(-591.985 -664.537)" fill="#dda577"/>
        <path id="Path_1069" data-name="Path 1069" d="M4049.22-306.514a6.906,6.906,0,0,0-3.169-.954,44.555,44.555,0,0,0-7.412.954,3.733,3.733,0,0,0-2.487,3.543c.054,1.167,1.818,2.172,5.258,2.047s6.907-1.686,7.984-2.931S4050.173-305.738,4049.22-306.514Z" transform="translate(-3814.581 426.117)" fill="#fff"/>
        <path id="Path_1070" data-name="Path 1070" d="M4036.77-306.514c.588-.792,2.417-.814,3.034-.954a23.693,23.693,0,0,1,6.729.954,4.677,4.677,0,0,1,2.1,3.7c-.132.877-1.49,2.016-4.613,1.891s-6.271-1.578-7.248-2.823A1.907,1.907,0,0,1,4036.77-306.514Z" transform="translate(-3838.369 426.116)" fill="#fff"/>
        <g id="EyesStyle_1_3" transform="translate(196.936 117.533)">
          <path id="Path_936" data-name="Path 936" d="M800.752,786.816c.479,1.739,2.714,2.06,4.794,1.735s4.44-1.85,4.03-4.272-2.812-2.787-5.365-2.352A4.288,4.288,0,0,0,800.752,786.816Z" transform="translate(-774.123 -781.194)" fill="#3d2413"/>
          <path id="Path_937" data-name="Path 937" d="M830.639,786.707c-.382,2.4-3.163,2.032-4.706,1.769s-4.459-1.795-4.078-4.193,2.765-2.771,5.32-2.367A3.949,3.949,0,0,1,830.639,786.707Z" transform="translate(-819.459 -781.193)" fill="#3d2413"/>
          <path id="Path_938" data-name="Path 938" d="M811.17,782.392s-7.7-3.413-12.9,1.651C801.475,784.386,811.17,782.392,811.17,782.392Z" transform="translate(-772.93 -781.268)" fill="#24150b"/>
          <path id="Path_939" data-name="Path 939" d="M821.29,783.174s7.35-4.112,13,.447C831.131,784.259,821.29,783.174,821.29,783.174Z" transform="translate(-821.29 -781.238)" fill="#24150b"/>
        </g>
        <g id="EyebrowsStyle_1_2" transform="translate(193.274 102.127)">
          <path id="Path_940" data-name="Path 940" d="M819.69,775.065l.04,1.582s6.371-2.661,6.345-2.694c.122.055,13.288-.539,13.292-.666-.015,0,0-2.3,0-2.3l-1.375-.7-12.22,1.118Z" transform="translate(-819.916 -767.825)" fill="#141414"/>
          <path id="Path_941" data-name="Path 941" d="M796.651,773.429l14.087.367,4.605,2.525a15.268,15.268,0,0,0,0-1.636l-4.078-3.3-12.643-1.316-1.464.9Z" transform="translate(-770.01 -767.85)" fill="#141414"/>
        </g>
        <g id="BeardStyle_7" transform="translate(197.234 143.607)">
          <path id="Path_951" data-name="Path 951" d="M803.956,807.581l-3.306-1.711-1.935,22.972a24.607,24.607,0,0,0,19.813,10.118c13.238,0,17.616-9.454,17.616-9.454l-1.417-25.488L832.3,805.87s-2.431,13.83-4.7,14.717-7.509-2.865-10.767-2.173-6.52,3.486-9.187,3.077S803.956,807.581,803.956,807.581Z" transform="translate(-798.715 -804.019)" fill="url(#linear-gradient-3)"/>
          <g id="Group_155" data-name="Group 155" transform="translate(5.348 9.133)">
            <path id="Path_952" data-name="Path 952" d="M826.709,814.278c-.2-.711-.224-1.58-.391-2.29a141.6,141.6,0,0,0-.3,21.228c.264.189.54.377.822.563C826.4,826,826.234,818.731,826.709,814.278Z" transform="translate(-825.781 -811.988)" fill="#080808"/>
            <path id="Path_953" data-name="Path 953" d="M812.164,817.113c1.316,5.408,4.041,11.607,4.929,19.938.266-.016.529-.031.786-.053-.916-8.617-3.615-14.866-4.919-20.186C812.738,817,812.386,816.9,812.164,817.113Z" transform="translate(-801.211 -811.283)" fill="#080808"/>
            <path id="Path_954" data-name="Path 954" d="M802.171,818.2c.8,4.27,2.769,9.558,3.307,14.814.254-.2.5-.39.732-.585-.588-5.523-2.624-11.039-3.448-15.35A5.429,5.429,0,0,1,802.171,818.2Z" transform="translate(-778.091 -811.245)" fill="#080808"/>
          </g>
        </g>
        <g id="MouthStyle_3" transform="translate(202.573 145.458)">
          <path id="Path_955" data-name="Path 955" d="M803.915,805.634a41.3,41.3,0,0,0,26.13.282S825.3,817.29,817.23,817.29C809.7,817.29,803.915,805.634,803.915,805.634Z" transform="translate(-803.915 -805.634)" fill="#240d00"/>
          <path id="Path_956" data-name="Path 956" d="M805.077,806.954s4.472,5.621,11.235,5.4a16.6,16.6,0,0,0,11.733-5.4,43.285,43.285,0,0,1-11.517,2.242C808.986,809.39,805.077,806.954,805.077,806.954Z" transform="translate(-803.247 -805.441)" fill="#f5e6df"/>
        </g>
        <path id="MustacheStyle_2" d="M799.465,812.055s-.764-6.444,2.793-8.617,8.923,1.608,15.845.887,11.129-2.3,13.678-2.4,3.365,6.065,2.64,9.29c-2.478-2.308-3.675-2.862-6.409-2.08a42.7,42.7,0,0,1-10.372,1.781c-6.782.327-11.152-.995-12.8-2.018S800.848,809.586,799.465,812.055Z" transform="translate(-600.791 -660.718)" fill="#080808"/>
        <g id="HairStyle_3" transform="translate(185.636 63.589)">
          <path id="HairStyle_2" d="M845.876,741.29s-5.374,6.993-24.854.179a102.741,102.741,0,0,1-13.489-6.006c-18.566-9.733-19.312,39.344-18.6,58.434h2.692s1.617-28.077,2.67-32.292c17.742-7.112,35.2-5.925,48.088.4a198.665,198.665,0,0,0,4.669,31.149l2.078-.768V788.4C849.735,771.082,845.876,741.29,845.876,741.29Z" transform="translate(-788.765 -734.198)" fill="url(#linear-gradient-4)"/>
          <path id="Path_957" data-name="Path 957" d="M838.647,743.23c-.391-.042-.785-.085-1.2-.14-3.458,1.977-9.509.841-15.387-.271-6.134-1.161-11.928-2.255-15.147-.058a8.167,8.167,0,0,0-3.641,5.48c-.679,3.971,1.39,8.182,2.651,10.3.264-.084.526-.163.787-.242-1.186-1.966-3.308-6.134-2.657-9.921a7.384,7.384,0,0,1,3.305-4.96c2.949-2.017,8.85-.9,14.557.18C828.392,744.819,835.072,746.073,838.647,743.23Z" transform="translate(-794.693 -733.132)" fill="#2a2a2a"/>
          <path id="Path_958" data-name="Path 958" d="M804.065,747.944c-5.826-.684-9.644.2-11.347,2.634a6.534,6.534,0,0,0-.81,5.008c.268-.023.535-.037.8-.054a5.849,5.849,0,0,1,.658-4.506c1.522-2.173,5.091-2.944,10.6-2.3,10.139,1.193,16.074.314,19.708-3.97.014-.469.025-.912.037-1.323C820.321,748.222,814.556,749.175,804.065,747.944Z" transform="translate(-766.702 -732.849)" fill="#2a2a2a"/>
        </g>
        <g id="CupOfCoffee" transform="translate(75.004 177.125)">
          <path id="Path_974" data-name="Path 974" d="M921.734,872.05l-4.975-34.391h22.3l-2.4,34.277Z" transform="translate(-914.685 -832.624)" fill="#edce90"/>
          <path id="Path_975" data-name="Path 975" d="M917.22,842.01h21.33l.318-3.186H916.759Z" transform="translate(-914.492 -832.454)" fill="#bda066"/>
          <path id="Path_976" data-name="Path 976" d="M941.392,841.019h-26.4l2.054-7.753,22.9,3.27Z" transform="translate(-914.992 -833.266)" fill="#7a4f24"/>
        </g>
        <g id="Papers_More" transform="translate(36.276 215.553)">
          <path id="Path_977" data-name="Path 977" d="M863.648,922.9l-.854-14.68,1.856-9.032-1.856-9.7,1.856-11.348V866.8H982.588l1.487,5.329v7.565l.185,4.121-.675.875.754.874.353,7.723-1.364,1.321,1.477,1.138.081,1.769-1.624,11.324,1.624,13.738Z" transform="translate(-859.936 -866.797)" fill="#ccc"/>
          <path id="Path_978" data-name="Path 978" d="M920.692,879.724V872.14l-1.486-5.343H864.7l.826,10.489.275,3.474v5.17l-.551,8.987-2.461,1.121,3.048,1.294.623,2.558-.881,8.277.881,14.04s.089.254.225.658l54.813-.149-1.624-13.774,1.624-11.352-.081-1.845-1.476-1.138,1.364-1.321-.353-7.723-.754-.873.675-.876Z" transform="translate(-796.554 -866.797)" fill="#f0f0f0"/>
          <path id="Path_979" data-name="Path 979" d="M914.022,907.891s42.687-1.175,45.7,0C953.548,908.187,914.022,907.891,914.022,907.891Z" transform="translate(-893.48 -860.872)" fill="#ccc"/>
          <path id="Path_980" data-name="Path 980" d="M926.811,903.047s42.685-1.175,45.7,0C966.337,903.34,926.811,903.047,926.811,903.047Z" transform="translate(-920.926 -861.579)" fill="#ccc"/>
          <path id="Path_981" data-name="Path 981" d="M938.378,909.894s30.3-.848,32.442,0C966.438,910.106,938.378,909.894,938.378,909.894Z" transform="translate(-932.493 -860.558)" fill="#ccc"/>
          <path id="Path_982" data-name="Path 982" d="M910.126,890.173s30.3-.848,32.441,0C938.186,890.386,910.126,890.173,910.126,890.173Z" transform="translate(-871.862 -863.438)" fill="#ccc"/>
          <path id="Path_983" data-name="Path 983" d="M912.355,883.628s30.3-.847,32.442,0C940.415,883.84,912.355,883.628,912.355,883.628Z" transform="translate(-876.647 -864.394)" fill="#ccc"/>
          <path id="Path_984" data-name="Path 984" d="M934.644,887.861s39.8-.846,42.606,0C971.5,888.072,934.644,887.861,934.644,887.861Z" transform="translate(-934.644 -863.776)" fill="#ccc"/>
          <path id="Path_985" data-name="Path 985" d="M933.944,880.051s39.8-.847,42.608,0C970.8,880.263,933.944,880.051,933.944,880.051Z" transform="translate(-933.143 -864.916)" fill="#ccc"/>
          <path id="Path_986" data-name="Path 986" d="M909.572,873.838s39.8-.843,42.606,0C946.425,874.05,909.572,873.838,909.572,873.838Z" transform="translate(-880.838 -865.823)" fill="#ccc"/>
          <path id="Path_987" data-name="Path 987" d="M862.408,908.11s30.3-.847,32.441,0C890.469,908.322,862.408,908.11,862.408,908.11Z" transform="translate(-769.457 -860.818)" fill="#bdbdbd"/>
          <path id="Path_988" data-name="Path 988" d="M861.347,913.5s24.164-.847,25.87,0C883.725,913.718,861.347,913.5,861.347,913.5Z" transform="translate(-760.609 -860.031)" fill="#d4d4d4"/>
          <path id="Path_989" data-name="Path 989" d="M893.194,910.1s24.163-.845,25.868,0C915.569,910.31,893.194,910.1,893.194,910.1Z" transform="translate(-828.953 -860.528)" fill="#bdbdbd"/>
          <path id="Path_990" data-name="Path 990" d="M863.929,881.316s40.759-.846,43.633,0C901.673,881.529,863.929,881.316,863.929,881.316Z" transform="translate(-783.914 -864.732)" fill="#c9c9c9"/>
          <path id="Path_991" data-name="Path 991" d="M881.946,899.569s31.652-.657,33.886,0C911.257,899.733,881.946,899.569,881.946,899.569Z" transform="translate(-812.832 -862.053)" fill="#c9c9c9"/>
          <path id="Path_992" data-name="Path 992" d="M869.135,887.616s31.653-.657,33.886,0C898.446,887.78,869.135,887.616,869.135,887.616Z" transform="translate(-785.339 -863.799)" fill="#d4d4d4"/>
          <path id="Path_993" data-name="Path 993" d="M858.84,895.939s31.653-.658,33.886,0C888.151,896.1,858.84,895.939,858.84,895.939Z" transform="translate(-763.245 -862.584)" fill="#d4d4d4"/>
          <path id="Path_994" data-name="Path 994" d="M861.347,871.122s24.164-.847,25.87,0C883.725,871.335,861.347,871.122,861.347,871.122Z" transform="translate(-760.609 -866.22)" fill="#bdbdbd"/>
          <path id="Path_995" data-name="Path 995" d="M924.28,912.7s37.469-1.253,46.836-.573C966.93,913.141,924.28,912.7,924.28,912.7Z" transform="translate(-916.633 -860.206)" fill="#ccc"/>
          <path id="Path_996" data-name="Path 996" d="M918.389,878.414,863.5,879.449l54.887-3.677Z" transform="translate(-794.25 -865.486)" fill="#d9d9d9"/>
          <path id="Path_997" data-name="Path 997" d="M863.658,895.672l54.358,2.44-.132.93-54.5-.818Z" transform="translate(-793.746 -862.58)" fill="#d9d9d9"/>
        </g>
        <g id="WorkCup_1" transform="translate(467.025 215.523)">
          <g id="Group_156" data-name="Group 156" transform="translate(0 2.196)">
            <rect id="Rectangle_193" data-name="Rectangle 193" width="33.357" height="2.94" transform="translate(6.186 36.286) rotate(-100.688)" fill="#ffd100"/>
            <path id="Path_998" data-name="Path 998" d="M601.13,900.418l2.889-.545-.695,4.241Z" transform="translate(-594.941 -864.133)" fill="#b5b5b5"/>
            <path id="Path_999" data-name="Path 999" d="M607.921,872.066l-.6-3.175,1.083-.2.816,3.134Z" transform="translate(-607.238 -868.687)" fill="#b5b5b5"/>
            <path id="Path_1000" data-name="Path 1000" d="M603.247,871.794l1.357-.259,2.3,15.158a.6.6,0,0,1-.925-.441,3.5,3.5,0,0,1,.151-1.826l-1.944-12.417-.862.219Z" transform="translate(-600.256 -868.271)" fill="#b5b5b5"/>
            <path id="Path_1001" data-name="Path 1001" d="M602.684,892.231l2.841-.8.047.253-2.82.907Z" transform="translate(-598.275 -865.366)" fill="#b5b5b5"/>
          </g>
          <g id="Group_157" data-name="Group 157" transform="translate(11.634 1.505)">
            <rect id="Rectangle_194" data-name="Rectangle 194" width="2.94" height="33.356" transform="translate(0 3.231)" fill="#39b4bd"/>
            <path id="Path_1002" data-name="Path 1002" d="M596.334,900.009h2.94l-1.469,4.043Z" transform="translate(-596.334 -863.422)" fill="#b5b5b5"/>
            <path id="Path_1003" data-name="Path 1003" d="M597.136,871.315v-3.231h1.1l.221,3.231Z" transform="translate(-596.438 -868.084)" fill="#b5b5b5"/>
            <path id="Path_1004" data-name="Path 1004" d="M595.129,871.4h1.381l-.551,15.319a.6.6,0,0,1-.826-.607,3.492,3.492,0,0,1,.487-1.763l.4-12.564-.886.057Z" transform="translate(-592.189 -867.6)" fill="#b5b5b5"/>
            <path id="Path_1005" data-name="Path 1005" d="M596.334,891.678l2.94-.257v.257l-2.94.367Z" transform="translate(-596.334 -864.676)" fill="#b5b5b5"/>
          </g>
          <g id="Group_158" data-name="Group 158" transform="translate(16.194 2.967)">
            <path id="Path_1006" data-name="Path 1006" d="M582.607,870.565l.588-1.111,1.619-.093-.315,1.8Z" transform="translate(-570.703 -869.36)" fill="#f0ebd5"/>
            <rect id="Rectangle_195" data-name="Rectangle 195" width="1.984" height="35.855" transform="translate(2.378 37.857) rotate(-162.405)" fill="#edc200"/>
            <rect id="Rectangle_196" data-name="Rectangle 196" width="0.936" height="36.018" transform="matrix(-0.953, -0.302, 0.302, -0.953, 1.886, 37.873)" fill="#ffd100"/>
            <path id="Path_1007" data-name="Path 1007" d="M593.217,901.924l-.383,4.5.456.144,1.819-4.047-.569-.759L594,901.9l-.225-.381Z" transform="translate(-592.719 -864.663)" fill="#ffd5a8"/>
            <rect id="Rectangle_197" data-name="Rectangle 197" width="1.984" height="1.964" transform="translate(13.204 3.675) rotate(-162.454)" fill="#c2c2c2"/>
            <rect id="Rectangle_198" data-name="Rectangle 198" width="0.626" height="1.965" transform="translate(12.256 3.377) rotate(-162.289)" fill="#dbdbdb"/>
            <path id="Path_1008" data-name="Path 1008" d="M583.413,872.724l-.237-.076.593-1.874.236.076Z" transform="translate(-570.546 -869.153)" fill="#dbdbdb"/>
            <path id="Path_1009" data-name="Path 1009" d="M594.537,905.8l-.116,1.217.084.11.488-1.183Z" transform="translate(-594.421 -864.038)" fill="#474747"/>
          </g>
          <g id="Group_159" data-name="Group 159" transform="translate(16.733)">
            <path id="Path_1010" data-name="Path 1010" d="M586.982,868.257l.435-1.179,1.591-.307-.073,1.828Z" transform="translate(-580.448 -866.771)" fill="#f0ebd5"/>
            <rect id="Rectangle_199" data-name="Rectangle 199" width="1.984" height="35.854" transform="translate(1.954 39.077) rotate(-170.048)" fill="#39b4bd"/>
            <rect id="Rectangle_200" data-name="Rectangle 200" width="0.936" height="36.018" transform="translate(1.459 39.157) rotate(-170.06)" fill="#3fc7d1"/>
            <path id="Path_1011" data-name="Path 1011" d="M592.742,900.63l.217,4.513.471.082,1.267-4.253-.664-.675-.521.206-.275-.348Z" transform="translate(-592.739 -861.895)" fill="#ffd5a8"/>
            <rect id="Rectangle_201" data-name="Rectangle 201" width="1.983" height="1.964" transform="translate(8.147 3.763) rotate(-170.026)" fill="#c2c2c2"/>
            <rect id="Rectangle_202" data-name="Rectangle 202" width="0.625" height="1.967" transform="matrix(-0.985, -0.171, 0.171, -0.985, 7.173, 3.593)" fill="#dbdbdb"/>
            <path id="Path_1012" data-name="Path 1012" d="M587.594,870.251l-.245-.041.339-1.936.245.042Z" transform="translate(-579.794 -866.551)" fill="#dbdbdb"/>
            <path id="Path_1013" data-name="Path 1013" d="M593.847,904.508l.048,1.222.1.1.327-1.236Z" transform="translate(-593.627 -861.26)" fill="#474747"/>
          </g>
          <path id="Path_1014" data-name="Path 1014" d="M586.116,886.129l4.7,33.769H608.45l2.646-33.769Z" transform="translate(-584.812 -863.944)" fill="#363636"/>
        </g>
        <g id="CompType_4" transform="translate(233.073 192.747)">
          <path id="Path_1015" data-name="Path 1015" d="M725.418,915.943l1.984-2.725h78.146l5.462,2.725Z" transform="translate(-725.418 -837.212)" fill="#9e9e9e"/>
          <path id="Path_1016" data-name="Path 1016" d="M744.795,846.912c-21.728.794-73.011,2.736-76.88,2.875a12.225,12.225,0,0,0-11.121,9.239c-1.576,5.626-18.659,66.6-18.659,66.6h99.979s14.057-60.854,15.858-68.929S750.445,846.7,744.795,846.912Z" transform="translate(-568.707 -846.897)" fill="url(#linear-gradient-5)"/>
        </g>
        <g id="Table_2" transform="translate(0 271.282)">
          <path id="Path_1019" data-name="Path 1019" d="M580.237,919.447h109.7l2.648,213.18H572.3Z" transform="translate(-217.438 -914.836)" fill="url(#linear-gradient-6)"/>
          <path id="Path_1020" data-name="Path 1020" d="M485.749,918.291H593.763l2.648,214.505H488.4Z" transform="translate(-22.076 -915.005)" fill="url(#linear-gradient-7)"/>
          <path id="Path_1021" data-name="Path 1021" d="M448.837,915.424H956.449v9.217l-503.592-.049Z" transform="translate(-355.086 -915.424)" fill="#666"/>
          <path id="Path_1022" data-name="Path 1022" d="M1019.567,915.424v9.18l-121.99-.011-4.292-9.169Z" transform="translate(-893.285 -915.424)" fill="#424242"/>
          <g id="Group_160" data-name="Group 160" transform="translate(13.712 9.217)">
            <path id="Path_1023" data-name="Path 1023" d="M924.077,928.008l30.358,204.075H941.064L916.382,927.126Z" transform="translate(-868.336 -922.932)" fill="#bababa"/>
            <path id="Path_1024" data-name="Path 1024" d="M989.114,928.008l-33.885,204.075h11.6l29.975-204.957Z" transform="translate(-955.229 -922.932)" fill="#bababa"/>
            <path id="Path_1025" data-name="Path 1025" d="M826.568,1080.858H1002.88l3.883,3.88-181.856,3.839Z" transform="translate(-815.83 -900.481)" fill="#bababa"/>
            <path id="Path_1026" data-name="Path 1026" d="M879.312,928.008l-25.065,204.075h13.369l19.389-204.957Z" transform="translate(-729.697 -922.932)" fill="#bababa"/>
            <path id="Path_1027" data-name="Path 1027" d="M819.243,928.008l34.773,204.075H838.881L811.549,927.126Z" transform="translate(-647.773 -922.932)" fill="#bababa"/>
            <path id="Path_1028" data-name="Path 1028" d="M842.6,925.518H979.665l1.345,7.7-140.027,1.734Z" transform="translate(-808.499 -923.167)" fill="#bababa"/>
            <path id="Path_1029" data-name="Path 1029" d="M841,933.519l1.764-8h20.892l1.345,7.7Z" transform="translate(-692.514 -923.167)" fill="#bababa"/>
            <rect id="Rectangle_203" data-name="Rectangle 203" width="11.303" height="2.351" transform="translate(48.95)" fill="#bababa"/>
            <rect id="Rectangle_204" data-name="Rectangle 204" width="11.302" height="2.351" transform="translate(138.973)" fill="#bababa"/>
          </g>
        </g>
        <g id="PlantType_4" transform="translate(489.486 168.091)">
          <path id="Path_1030" data-name="Path 1030" d="M482.432,856.746s-3.8-24.02,8.889-27.226C492.047,838.616,493.885,852.119,482.432,856.746Z" transform="translate(-415.628 -824.779)" fill="#807b22"/>
          <path id="Path_1031" data-name="Path 1031" d="M491.22,873.037l5.7-18.857,1.478.121-4.339,19.492Z" transform="translate(-432.823 -821.177)" fill="#96693f"/>
          <path id="Path_1032" data-name="Path 1032" d="M492.718,858.752l1.953-.155-.578,2.876-1.913-.95Z" transform="translate(-430.193 -820.532)" fill="#6e4d2e"/>
          <path id="Path_1033" data-name="Path 1033" d="M519.265,858.863l-26.58-16.019S517.246,839.158,519.265,858.863Z" transform="translate(-455.365 -822.873)" fill="#8f8927"/>
          <path id="Path_1034" data-name="Path 1034" d="M510.785,859.241l-18.3-27.174S511.528,839.658,510.785,859.241Z" transform="translate(-446.672 -824.407)" fill="#9e982b"/>
          <path id="Path_1035" data-name="Path 1035" d="M468.722,858.073s15.693-14.581,27.463-8.694C489.808,852.395,468.722,858.073,468.722,858.073Z" transform="translate(-404.822 -822.083)" fill="#9e982b"/>
          <path id="Path_1036" data-name="Path 1036" d="M468.722,857.82s27.413-2.059,27.463-2.322S487.3,841.2,468.722,857.82Z" transform="translate(-404.822 -821.83)" fill="#9e982b"/>
          <path id="Path_1037" data-name="Path 1037" d="M493.948,857.951l-4.68-32.568S501.692,839.417,493.948,857.951Z" transform="translate(-428.673 -825.383)" fill="#8f8928"/>
          <path id="Path_1038" data-name="Path 1038" d="M469.88,854.824l25.3-15.027S482.688,834.312,469.88,854.824Z" transform="translate(-405.148 -823.375)" fill="#9e982b"/>
          <path id="Path_1039" data-name="Path 1039" d="M486.038,850.795s5.525,12.037,14.079,1.371A47.672,47.672,0,0,0,486.038,850.795Z" transform="translate(-428.6 -821.682)" fill="#b5ae31"/>
          <path id="Path_1040" data-name="Path 1040" d="M480.919,848.973s7.593,11.937,16.147,1.273C497.158,844.634,480.919,848.973,480.919,848.973Z" transform="translate(-419.681 -822.172)" fill="#b5ae31"/>
          <path id="Path_1041" data-name="Path 1041" d="M495.55,864.777l-1.833-2.04-.219.728,1.71,2.851Z" transform="translate(-432.582 -819.928)" fill="#6e4d2e"/>
          <path id="Path_1042" data-name="Path 1042" d="M518.592,869.951l-.7-10.724,1.413-.445,2.2,10.8Z" transform="translate(-486.5 -820.505)" fill="#96693f"/>
          <path id="Path_1043" data-name="Path 1043" d="M518.526,863.365l2.239.332.339,1.434-2.392,1.1Z" transform="translate(-486.819 -819.836)" fill="#6e4d2e"/>
          <path id="Path_1044" data-name="Path 1044" d="M516.731,854.364s-6.719-12.862,3.832-20.6C524.655,841.917,525.6,845.772,516.731,854.364Z" transform="translate(-484.812 -824.159)" fill="#807b22"/>
          <path id="Path_1045" data-name="Path 1045" d="M536.363,867.054H489.932l-4.413,55.63h52.608Z" transform="translate(-466.014 -819.297)" fill="#fff"/>
          <path id="Path_1046" data-name="Path 1046" d="M551.892,862.208l-31.659,1.461S541.588,851.588,551.892,862.208Z" transform="translate(-519.564 -820.643)" fill="#9e982b"/>
          <path id="Path_1047" data-name="Path 1047" d="M552.531,862.218l-32.09-10.756S545.861,843.792,552.531,862.218Z" transform="translate(-520.441 -821.805)" fill="#9e982b"/>
          <path id="Path_1048" data-name="Path 1048" d="M505.276,864.4s4.02-22.592,17.141-21.559C517.639,848.033,505.276,864.4,505.276,864.4Z" transform="translate(-472.947 -822.838)" fill="#9e982b"/>
          <path id="Path_1049" data-name="Path 1049" d="M498.788,863.532s24.631-12.211,24.577-12.474S509.755,841.151,498.788,863.532Z" transform="translate(-466.459 -821.968)" fill="#9e982b"/>
          <path id="Path_1050" data-name="Path 1050" d="M543.688,861.13l-23.446-21.164S543.9,841.044,543.688,861.13Z" transform="translate(-511.372 -823.253)" fill="#827d24"/>
          <path id="Path_1051" data-name="Path 1051" d="M505.517,860.694l17.8-23.437S509.677,836.871,505.517,860.694Z" transform="translate(-474.125 -823.649)" fill="#9e982b"/>
          <path id="Path_1052" data-name="Path 1052" d="M515.879,858.72s9.644,9.079,13.561-4.019A47.7,47.7,0,0,0,515.879,858.72Z" transform="translate(-492.122 -821.101)" fill="#b5ae31"/>
          <path id="Path_1053" data-name="Path 1053" d="M514.761,853.583s9.644,9.077,13.562-4.022C526.3,844.326,514.761,853.583,514.761,853.583Z" transform="translate(-489.723 -822.086)" fill="#b5ae31"/>
          <g id="Group_161" data-name="Group 161" transform="translate(25.039 52.273)">
            <path id="Path_1054" data-name="Path 1054" d="M520.775,873.753l2.7.77,1.9-.77Z" transform="translate(-518.702 -870.592)" fill="#d6d6d6"/>
            <path id="Path_1055" data-name="Path 1055" d="M526.541,902.055l-.943,2.2,1.142,1.443Z" transform="translate(-525.598 -866.459)" fill="#d6d6d6"/>
            <path id="Path_1056" data-name="Path 1056" d="M512,871.444l2.314.661-.868,1.213L512,872.383Z" transform="translate(-497.579 -870.929)" fill="#d6d6d6"/>
            <path id="Path_1057" data-name="Path 1057" d="M510.942,894.527l4.717-1.217v2.922H518v1.336l-1.732,1.1,3.315,2.312-1.7,1.218-5.112-4.442h-4.587l.936-1.887Z" transform="translate(-498.481 -867.736)" fill="#d6d6d6"/>
            <path id="Path_1058" data-name="Path 1058" d="M508.161,915.892l-3.821-2.329-1.929,1.167H491.482l-5.963,1.162Z" transform="translate(-461.087 -864.778)" fill="#d6d6d6"/>
            <path id="Path_1059" data-name="Path 1059" d="M504.627,908.177l-1.428,1.36h.785Z" transform="translate(-477.816 -865.565)" fill="#d6d6d6"/>
            <path id="Path_1060" data-name="Path 1060" d="M496.036,880.516v1.321l-1.028,2.279,1.322-1.8,1.248-.55-.882-.955Z" transform="translate(-461.38 -869.604)" fill="#d6d6d6"/>
            <path id="Path_1061" data-name="Path 1061" d="M488.087,879.038l-.8,1.27.4,7.33-.769,1.1-.661,3.526s.874.385.915.855,1.4,1.13,1.4,1.13Z" transform="translate(-442.343 -869.82)" fill="#d6d6d6"/>
            <path id="Path_1062" data-name="Path 1062" d="M495.008,898.456l.919-.44.366.44-.643.589Z" transform="translate(-460.094 -867.049)" fill="#d6d6d6"/>
            <path id="Path_1063" data-name="Path 1063" d="M502.7,885.219l.919-.442.367.442-.644.586Z" transform="translate(-476.602 -868.982)" fill="#d6d6d6"/>
            <path id="Path_1064" data-name="Path 1064" d="M488.853,893.751l.918-.441.367.441-.643.586Z" transform="translate(-446.886 -867.736)" fill="#d6d6d6"/>
            <path id="Path_1065" data-name="Path 1065" d="M489.415,906.982l.919-.437.367.438-.643.588Z" transform="translate(-448.091 -865.803)" fill="#d6d6d6"/>
            <path id="Path_1066" data-name="Path 1066" d="M494.447,871.435l.919-.44.367.44-.644.588Z" transform="translate(-458.891 -870.995)" fill="#d6d6d6"/>
            <path id="Path_1067" data-name="Path 1067" d="M524.224,884.769l.919-.441.365.441-.642.589Z" transform="translate(-522.794 -869.047)" fill="#d6d6d6"/>
          </g>
          <path id="Path_1068" data-name="Path 1068" d="M500.051,867.054l-14.532,55.63h20.906l-1.764-55.63Z" transform="translate(-434.312 -819.297)" opacity="0.05"/>
        </g>
      </g>
      <path id="Path_1090" data-name="Path 1090" d="M11.417,7.323A18.268,18.268,0,0,1,22,11,11,11,0,0,1,0,11C-.139,10.874,5.342,7.323,11.417,7.323Z" transform="translate(467 2438)" opacity="0.478" fill="url(#linear-gradient-8)"/>
      <path id="Path_1091" data-name="Path 1091" d="M11.417,7.323A18.268,18.268,0,0,1,22,11,11,11,0,0,1,0,11C-.139,10.874,5.342,7.323,11.417,7.323Z" transform="translate(495 2438)" opacity="0.478" fill="url(#linear-gradient-8)"/>
      <g id="Ellipse_7" data-name="Ellipse 7" transform="translate(467 2438)" fill="none" stroke="#4b4b4b" stroke-width="1.5">
        <circle cx="11" cy="11" r="11" stroke="none"/>
        <circle cx="11" cy="11" r="10.25" fill="none"/>
      </g>
      <g id="Ellipse_8" data-name="Ellipse 8" transform="translate(495 2438)" fill="none" stroke="#4b4b4b" stroke-width="1.5">
        <circle cx="11" cy="11" r="11" stroke="none"/>
        <circle cx="11" cy="11" r="10.25" fill="none"/>
      </g>
      <path id="Path_1087" data-name="Path 1087" d="M460.938,2447.751H468.4" fill="none" stroke="#4b4b4b" stroke-width="1.5"/>
      <path id="Path_1089" data-name="Path 1089" d="M460.938,2447.751H466.8" transform="translate(55)" fill="none" stroke="#4b4b4b" stroke-width="1.5"/>
      <path id="Path_1088" data-name="Path 1088" d="M488.231,2449s4.3-4.152,7.431-.2" fill="none" stroke="#4b4b4b" stroke-width="1.5"/>
      <path id="Path_1093" data-name="Path 1093" d="M290.514,2387.011c10.047,3.9,35.245-11.855,50.568-33.433s46.483-88.637,25.748-84.4-44.668,40.175-53.733,53.841S280.467,2383.106,290.514,2387.011Z" transform="translate(-8 -6)" fill="none" stroke="#b1cfef" stroke-width="1"/>
      <path id="Path_1092" data-name="Path 1092" d="M290.514,2387.011c10.047,3.9,35.245-11.855,50.568-33.433s46.483-88.637,25.748-84.4-44.668,40.175-53.733,53.841S280.467,2383.106,290.514,2387.011Z" transform="translate(-4 -1)" fill="#e1eefc"/>
    </g>
    <rect id="Rectangle_205" data-name="Rectangle 205" width="91" height="86" transform="translate(577.371 2295.51) rotate(-45)" fill="url(#linear-gradient-10)"/>
    <g id="Group_166" data-name="Group 166" transform="translate(0 29.636)">
      <circle id="Ellipse_9" data-name="Ellipse 9" cx="43.098" cy="43.098" r="43.098" transform="translate(627.038 2191.129)" fill="#6c5a4c"/>
      <path id="Path_1097" data-name="Path 1097" d="M37.952,0A37.952,37.952,0,1,1,0,37.952,37.952,37.952,0,0,1,37.952,0Z" transform="translate(632.184 2196.276)" fill="#fff"/>
      <path id="Path_1095" data-name="Path 1095" d="M1.92-3.7h.637L3.7,8.853l-.823,7.613H1.92L.737,8.853Z" transform="translate(686.539 2231.976) rotate(90)" fill="#b1cfef"/>
      <path id="Path_1094" data-name="Path 1094" d="M2.442,0H2.97l.89,20.289L2.442,30.233H1.118L.079,20.289Z" transform="matrix(1, -0.017, 0.017, 1, 667.943, 2204.318)" fill="#b1cfef"/>
    </g>
    <path id="Path_1096" data-name="Path 1096" d="M2.153,0A2.153,2.153,0,1,1,0,2.153,2.153,2.153,0,0,1,2.153,0Z" transform="translate(667.847 2261.847)" fill="#b1cfef"/>
    <g id="Group_173" data-name="Group 173" transform="translate(383.988 1626.476)">
      <path id="Path_1126" data-name="Path 1126" d="M85.74,421.28c-2.06-5.409-9.015-10.817-17.136-9.787s-15.813,5.152-17.94,12.878S52.08,442.7,54.686,444.2c2.685,1.546,6.586,5.152,10.56,5.666s14.056-3.09,18.478-7.984S87.8,426.689,85.74,421.28ZM74.518,446.363c-5.676,1.536-14.975-.624-17.706-2.927s-3.916-6.889-5.185-9.342c-1.23-2.381,1.228-12.043,6.551-16.811s13.077-4.147,19.664-1,9.192,10.555,8.128,15.6S80.2,444.827,74.518,446.363Z" transform="translate(0)" fill="#e1eefc"/>
      <path id="Path_1127" data-name="Path 1127" d="M79.711,420.738l-11.047,8.946-8.27-4.911-.858,1.288,7.266,5.131-1.084.878.944.687,1.1-.885,1.253.885,1.936-1.713-1.24-.736L80.569,421.6Z" transform="translate(-0.409 -0.403)" fill="#e1eefc"/>
      <rect id="Rectangle_206" data-name="Rectangle 206" width="1.321" height="3.616" transform="translate(67.94 415.964)" fill="#e1eefc"/>
      <rect id="Rectangle_207" data-name="Rectangle 207" width="1.321" height="3.616" transform="translate(67.94 440.667)" fill="#e1eefc"/>
      <rect id="Rectangle_208" data-name="Rectangle 208" width="3.616" height="1.321" transform="translate(79.143 429.463)" fill="#e1eefc"/>
      <rect id="Rectangle_209" data-name="Rectangle 209" width="3.616" height="1.321" transform="translate(54.441 429.463)" fill="#e1eefc"/>
    </g>
    <g id="Group_78" data-name="Group 78" transform="translate(435.461 1944.333)">
      <path id="Path_548" data-name="Path 548" d="M470.356,158.671c.609-4.109,1.145-9.315.618-12.605-.98-6.113-10.186-14.4-10.186-14.4s-7.45,8.755-9.164,13.741c-1.038,3.019-1.268,9.26-1.234,13.881-2.146,1.415-6.589,5.545-5.747,15.181,3.184-5.022,9.8-9.553,9.8-9.553h12.247c3.061,1.1,6,4.409,9.307,9.276C479.547,161.058,470.357,158.671,470.356,158.671Zm-16.69,4.6-.844-1.793c.228-4.2.848-14.28,1.619-16.4.979-2.694,5.815-9.43,5.815-9.43s6.8,6.124,7.779,9.92-.612,16.9-.612,16.9Z" fill="#e1eefc"/>
      <path id="Path_549" data-name="Path 549" d="M459.584,146.056a3.827,3.827,0,0,0-1.224,3.8c.367,1.653,1.1,2.51,2.428,2.755s3.144-2.265,3.266-3.245-1.408-3-1.408-3Z" fill="#e1eefc"/>
      <path id="Path_550" data-name="Path 550" d="M464.57,167.856h-6.815a7.076,7.076,0,0,0-4.322,4.137c-1.114,3.182,4.057,5.329,3.9,5.25s-1.512-3.262-1.034-5.33,3.42-1.909,2.863-.159-.477,6.125,1.882,6.762,1.857,4.136,1.857,4.614,2.069-3.342.16-4.694-1.83-5.409,0-5.409,2.386,4.057,2.236,4.3,1.582-2.307,1.264-3.818A57.313,57.313,0,0,0,464.57,167.856Z" fill="#e1eefc"/>
      <path id="Path_551" data-name="Path 551" d="M458.683,184.88c1.353-1.83.231-5.012.231-5.012S456.854,181.141,458.683,184.88Z" fill="#e1eefc"/>
    </g>
    <g id="Rectangle_210" data-name="Rectangle 210" transform="translate(960.131 2502.981) rotate(180)" fill="none" stroke="#638db9" stroke-width="8" opacity="0.193">
      <rect width="32.953" height="32.953" rx="16.477" stroke="none"/>
      <rect x="4" y="4" width="24.953" height="24.953" rx="12.477" fill="none"/>
    </g>
  </g>
</svg>
