<svg xmlns="http://www.w3.org/2000/svg" width="48.373" height="64.113" viewBox="0 0 48.373 64.113">
  <g id="Group_330" data-name="Group 330" transform="translate(-585.638 -80.747) rotate(2)">
    <path id="Path_2176" data-name="Path 2176" d="M604.525,101.94a5.311,5.311,0,1,0-5.31,5.311A5.31,5.31,0,0,0,604.525,101.94Z" fill="#f9f1d5"/>
    <path id="Path_2177" data-name="Path 2177" d="M601.859,110.3l-2.78,7.5-2.8-7.5c-5.433,2.384-6,12.507-6,12.507l16.173-.483S606.632,112.876,601.859,110.3Z" fill="#f9f1d5"/>
    <path id="Path_2178" data-name="Path 2178" d="M631.279,93.078a7.566,7.566,0,1,0-7.566,7.566A7.566,7.566,0,0,0,631.279,93.078Z" fill="#f9f1d5"/>
    <path id="Path_2179" data-name="Path 2179" d="M628.583,105.7c-1.848,3.622-4.87,9.366-4.87,9.366l-4.064-9.951c-7.141,3.94-8.661,17.691-8.661,17.691l23.042-.688S634.257,110.146,628.583,105.7Z" fill="#f9f1d5"/>
    <path id="Path_2180" data-name="Path 2180" d="M597.933,109.666c0-.083,1.147,2.557,1.273,2.96.008-.434.718-3.171.718-3.171Z" fill="#f9f1d5"/>
    <path id="Path_2181" data-name="Path 2181" d="M599.206,112.626c0,.031,0,.052.009.057S599.218,112.666,599.206,112.626Z" fill="#f9f1d5"/>
    <path id="Path_2182" data-name="Path 2182" d="M624.094,108.851l2.112-4.978a4.035,4.035,0,0,0-3.5,0Z" fill="#f9f1d5"/>
    <path id="Path_2183" data-name="Path 2183" d="M636.478,60.214l-47.092,2.341,1.449,19.837,8.384,2.4s-.526,5.016-.29,5.722l4.547-6.535,16.557-4.7,4.423,3.118V79.107l12.022-.167S636.526,65.612,636.478,60.214Zm-2.446,16.5-11.326-.78-18.181,5.908L593.9,79.163l-1.453-14.49,42.355-3.121Z" fill="#f9f1d5"/>
    <path id="Path_2184" data-name="Path 2184" d="M628.007,66.233l-28.8,1.115v2.564l28.8-.78Z" fill="#f9f1d5"/>
    <path id="Path_2185" data-name="Path 2185" d="M612.514,71.36l-13.308.892v2.564l13.308-.557Z" fill="#f9f1d5"/>
  </g>
</svg>
