<svg xmlns="http://www.w3.org/2000/svg" xmlns:xlink="http://www.w3.org/1999/xlink" width="731.458" height="593.476" viewBox="0 0 731.458 593.476">
  <defs>
    <linearGradient id="linear-gradient" x1="0.5" y1="0.379" x2="0.5" y2="0.196" gradientUnits="objectBoundingBox">
      <stop offset="0" stop-color="#6e4d34"/>
      <stop offset="1" stop-color="#4d3625"/>
    </linearGradient>
    <linearGradient id="linear-gradient-2" x1="0.5" y1="-0.012" x2="0.5" y2="0.346" gradientUnits="objectBoundingBox">
      <stop offset="0" stop-color="#adadad"/>
      <stop offset="0.323" stop-color="#c7c7c7"/>
      <stop offset="1" stop-color="#c1c1c1"/>
    </linearGradient>
    <linearGradient id="linear-gradient-4" x1="0.088" y1="0.807" x2="0.431" y2="0.539" gradientUnits="objectBoundingBox">
      <stop offset="0" stop-color="#ffb991"/>
      <stop offset="0.239" stop-color="#fab188"/>
      <stop offset="0.619" stop-color="#ed9e71"/>
      <stop offset="1" stop-color="#de8654"/>
    </linearGradient>
    <linearGradient id="linear-gradient-5" x1="0.644" y1="0.333" x2="0.214" y2="0.799" gradientUnits="objectBoundingBox">
      <stop offset="0" stop-color="#b3b3b3"/>
      <stop offset="0.284" stop-color="#bbb"/>
      <stop offset="0.735" stop-color="#d2d2d2"/>
      <stop offset="1" stop-color="#e3e3e3"/>
    </linearGradient>
    <radialGradient id="radial-gradient" cx="5816.015" cy="2977.683" r="49.768" gradientTransform="translate(-5834.161 -2987.843) scale(2.174 2.174)" gradientUnits="userSpaceOnUse">
      <stop offset="0" stop-color="#de8959"/>
      <stop offset="0.342" stop-color="#ec9e71"/>
      <stop offset="0.746" stop-color="#fab188"/>
      <stop offset="1" stop-color="#ffb991"/>
    </radialGradient>
    <linearGradient id="linear-gradient-6" y1="1.022" x2="0.402" y2="0.215" gradientUnits="objectBoundingBox">
      <stop offset="0" stop-color="#1c528b"/>
      <stop offset="1" stop-color="#002954"/>
    </linearGradient>
    <linearGradient id="linear-gradient-7" x1="0.5" y1="0.62" x2="0.5" y2="0.251" gradientUnits="objectBoundingBox">
      <stop offset="0" stop-color="#ffb991"/>
      <stop offset="0.282" stop-color="#f6ab81"/>
      <stop offset="0.64" stop-color="#efa175"/>
      <stop offset="1" stop-color="#ed9e72"/>
    </linearGradient>
    <linearGradient id="linear-gradient-8" x1="0.542" y1="0.862" x2="1.542" y2="0.862" gradientUnits="objectBoundingBox">
      <stop offset="0" stop-color="#ffb991"/>
      <stop offset="0.42" stop-color="#ffb388"/>
      <stop offset="1" stop-color="#ffa775"/>
    </linearGradient>
    <radialGradient id="radial-gradient-2" cx="1155.526" cy="300.649" r="8.859" gradientTransform="translate(-26.938 -7.399) scale(1.081 1.081)" gradientUnits="userSpaceOnUse">
      <stop offset="0" stop-color="#ed9664"/>
      <stop offset="0.229" stop-color="#f2a071"/>
      <stop offset="0.702" stop-color="#fbb288"/>
      <stop offset="1" stop-color="#ffb991"/>
    </radialGradient>
    <linearGradient id="linear-gradient-9" x1="0.5" x2="0.5" y2="1" gradientUnits="objectBoundingBox">
      <stop offset="0" stop-color="#002954"/>
      <stop offset="1" stop-color="#1a4f87"/>
    </linearGradient>
    <linearGradient id="linear-gradient-10" x1="0.5" x2="0.5" y2="1" gradientUnits="objectBoundingBox">
      <stop offset="0" stop-color="#245991"/>
      <stop offset="1" stop-color="#3b70a8"/>
    </linearGradient>
    <linearGradient id="linear-gradient-11" x1="0.126" y1="0.218" x2="0.597" y2="0.9" gradientUnits="objectBoundingBox">
      <stop offset="0" stop-color="#245991"/>
      <stop offset="1" stop-color="#003a78"/>
    </linearGradient>
    <linearGradient id="linear-gradient-12" x1="0.856" y1="0.527" x2="0.985" y2="0.544" gradientUnits="objectBoundingBox">
      <stop offset="0" stop-color="#ffb991"/>
      <stop offset="0.308" stop-color="#fcb288"/>
      <stop offset="0.796" stop-color="#f5a171"/>
      <stop offset="1" stop-color="#f29966"/>
    </linearGradient>
  </defs>
  <g id="Group_300" data-name="Group 300" transform="translate(-981.296 -265.848)">
    <path id="Path_1488" data-name="Path 1488" d="M5457.834-2408.836c-133.857,0-196.877-.234-256.742,5.868s47.238,15.59,139.961,17.69,261.45-1.8,362.123-4.038,107.312-15.051,11.584-19.521S5591.691-2408.836,5457.834-2408.836Z" transform="translate(-4075 3244)" fill="#e1eefc"/>
    <path id="Path_1482" data-name="Path 1482" d="M5146.647-2787.832c88.235-30.533,424.2-93.647,503.112-89.608s132,58.755,86.329,195.986-87.369,173.2-175.811,159.161-203.1-36.469-256.575-77.532-83.254-108.657-157.055-127.221S5058.412-2757.3,5146.647-2787.832Z" transform="translate(-4075 3244)" fill="#e1eefc"/>
    <path id="Path_1485" data-name="Path 1485" d="M5146.647-2787.832c88.235-30.533,424.2-93.647,503.112-89.608s132,58.755,86.329,195.986-87.369,173.2-175.811,159.161-203.1-36.469-256.575-77.532-83.254-108.657-157.055-127.221S5058.412-2757.3,5146.647-2787.832Z" transform="translate(-4085 3244)" fill="none" stroke="#b1cfef" stroke-width="1"/>
    <path id="Path_1484" data-name="Path 1484" d="M5190.933-2669.184c-25.452-18.07-57.181-33.679-96.58-43.953s15.437,42.73,53.676,58.9S5216.385-2651.114,5190.933-2669.184Z" transform="translate(5581.641 -3018.114) rotate(169)" fill="none" stroke="#b1cfef" stroke-width="1"/>
    <path id="Path_1483" data-name="Path 1483" d="M5190.933-2669.184c-25.452-18.07-57.181-33.679-96.58-43.953s5.934,48.017,44.172,64.184S5216.385-2651.114,5190.933-2669.184Z" transform="translate(5592.254 -3021.626) rotate(169)" fill="#e1eefc"/>
    <g id="PlantType_4" transform="translate(1517.55 547.942)">
      <path id="Path_1235" data-name="Path 1235" d="M146.526,312.11h4.2c-.409,34.8,22.289,27.813,27.861,25.576-3.947-11.381-1.576-25.576-1.576-25.576l3.966.235c-.467,13.067-7.232,31.5,19.133,40.149a13.236,13.236,0,0,1,3.689,1.84c.686-3.36,3.455-7.149,11.008-10.182a23.141,23.141,0,0,0,8.595-6.073c-22.129,3.2-23.551-14.534-23.551-14.534a11.152,11.152,0,0,0,2.8.66c4.639,15.555,17.407,13.845,21.674,12.794,8.505-10.475,8.833-26.443,8.833-26.443l3.732-.154c4.822,27.063-27.063,35.618-29.332,41.217a11.07,11.07,0,0,0-.9,5.968c3.338,6.251-.5,15.677-3.2,20.909,10.8-7.069,19.778-8.432,40.791-13.762,17.7-4.487,15.585-32.028,15.585-32.028a20.885,20.885,0,0,1,4.846,0c7.7,42.716-44.9,32.757-59.143,47.379s-7.219,29.552,2.736,34.53,3.734,13.15,3.734,15.552c0,0-8.633,5.134-18.367,4.382-5.068-6.819-4.5-16.746.371-22.347-2.363-5.364-1.836-13.063,1.2-24.5a9.643,9.643,0,0,1,1.172-2.628c.277-5.157,1.39-8.329-10.958-6.131-17.312,4.2-17.559-14.84-17.559-14.84s1.057,0,4.025-.246-.069,16.074,14.246,13.6,11.575,4.933,11.575,4.933h0c3.786-8.673,13.952-26.775-5.466-31.323-6.876-1.608-10.878-6.366-13.153-12.03C140.024,350.235,146.526,312.11,146.526,312.11Z" transform="translate(-135.775 -280.794)" fill="url(#linear-gradient)"/>
      <path id="Path_1236" data-name="Path 1236" d="M228.376,418.012,220.1,460.74H189.478l-4.838-42.728Z" transform="translate(-139.326 -274.919)" fill="#f0f0f0"/>
      <path id="Path_1237" data-name="Path 1237" d="M231.147,418.012H181.779l-1.411,4.346,52.366-2.174Z" transform="translate(-139.179 -274.919)" fill="#f8f8f8"/>
      <path id="Path_1238" data-name="Path 1238" d="M227.884,420.072s-32.023,3.2-31.867,4.311c.827,5.915,4.14,24.526,12.986,36.243h-19.6l-4.368-38.573Z" transform="translate(-139.255 -274.806)" fill="#ddd"/>
      <path id="Path_1239" data-name="Path 1239" d="M188.3,469.4l12.606,101.985h-2.52L182,469.4Z" transform="translate(-109.077 -272.113)" fill="url(#linear-gradient-2)"/>
      <path id="Path_1240" data-name="Path 1240" d="M228.052,469.4,215.445,571.387h2.52L234.352,469.4Z" transform="translate(-177.79 -272.113)" fill="url(#linear-gradient-2)"/>
      <path id="Path_1241" data-name="Path 1241" d="M185.3,470.987l46.6,1.263.63-14.32-48.491.63Z" transform="translate(-142.853 -272.739)" fill="#d6d6d6"/>
      <g id="Group_215" data-name="Group 215" transform="translate(41.664 187.802)">
        <path id="Path_1242" data-name="Path 1242" d="M189.868,469.2c5.809-1.786,15.764-1.631,23.034-1.52.948.016,1.9.031,2.809.038l-.027.629c-.82-.007-1.738-.02-2.792-.035-7.228-.113-17.127-.268-22.838,1.489-1.215.374-2.435.753-3.646,1.133l-1.936-.052C186.251,470.319,188.067,469.753,189.868,469.2Z" transform="translate(-168.149 -460.012)" fill="#bebebe"/>
        <path id="Path_1243" data-name="Path 1243" d="M231.784,465.736l-.028.63c-10.789-1.269-36.328-.683-47.308-.355l-.064-.633C195.352,465.042,220.784,464.445,231.784,465.736Z" transform="translate(-184.128 -460.158)" fill="#bebebe"/>
        <path id="Path_1244" data-name="Path 1244" d="M184.15,463.1c9.426-.1,37.468-1.974,47.9-2.692l-.028.633c-10.463.719-38.284,2.582-47.81,2.688Z" transform="translate(-184.15 -460.406)" fill="#bebebe"/>
      </g>
      <path id="Path_1245" data-name="Path 1245" d="M216.627,312.876c0,8.269,12.382,13.488,27.658,13.488s27.658-5.219,27.658-13.488-12.383-16.458-27.658-16.458S216.627,304.606,216.627,312.876Z" transform="translate(-216.627 -281.558)" fill="#878f27"/>
      <g id="Group_216" data-name="Group 216" transform="translate(0.141 15.759)">
        <path id="Path_1246" data-name="Path 1246" d="M233.817,302.681c.192-.142.394-.281.595-.42,9.432,1.148,20.379-1.67,29.351-4.991.3.064.6.128.9.2-7.781,2.93-17.148,5.548-25.8,5.548A37.275,37.275,0,0,1,233.817,302.681Z" transform="translate(-227.615 -297.27)" fill="#737a21"/>
        <path id="Path_1247" data-name="Path 1247" d="M216.926,314.163c-.044-.17-.091-.342-.124-.515a133.655,133.655,0,0,0,54.879-3.724c.042.162.078.323.111.485a131.772,131.772,0,0,1-36.318,5.026A133.885,133.885,0,0,1,216.926,314.163Z" transform="translate(-216.802 -296.579)" fill="#737a21"/>
      </g>
      <path id="Path_1248" data-name="Path 1248" d="M248.824,319.612c3.85-3.039,5.4-16.026,5.916-21.931,10.09,2.645,17.2,8.862,17.2,15.127,0,8.269-12.383,13.488-27.658,13.488s-27.658-5.219-27.658-13.488c0-.22.013-.441.031-.66C226.035,325.454,244.3,323.187,248.824,319.612Z" transform="translate(-216.627 -281.489)" fill="#767d22"/>
      <path id="Path_1249" data-name="Path 1249" d="M116.415,332.054c0,8.661,12.631,13.209,28.212,13.209s28.208-4.547,28.208-13.209S160.206,313.9,144.627,313.9,116.415,323.394,116.415,332.054Z" transform="translate(-11.835 -280.603)" fill="#878f27"/>
      <g id="Group_217" data-name="Group 217" transform="translate(106.58 34.046)">
        <path id="Path_1250" data-name="Path 1250" d="M145.078,326.282c-6.748-.149-16.5-2.392-26.622-11.547.2-.044.4-.083.605-.126,9.9,8.841,19.408,11.026,26,11.179a34.452,34.452,0,0,0,7.255-.61c.105.149.212.3.311.446a34.777,34.777,0,0,1-6.775.665C145.6,326.291,145.34,326.289,145.078,326.282Z" transform="translate(-100.363 -314.61)" fill="#737a21"/>
        <path id="Path_1251" data-name="Path 1251" d="M154.215,339.263c-10.174-.922-23.522-4.2-34.228-13.957.09-.141.178-.282.274-.423,10.616,9.709,23.879,12.968,33.985,13.886a87.3,87.3,0,0,0,16.394-.117q-.358.291-.745.568c-2.391.218-5.161.374-8.187.374C159.346,339.595,156.827,339.5,154.215,339.263Z" transform="translate(-119.987 -314.049)" fill="#737a21"/>
      </g>
      <path id="Path_1252" data-name="Path 1252" d="M128.74,317.234c-3.526,5.952-4.368,16.232,15.885,17.354,21,1.164,26.057-7.385,24.706-10.877a12.8,12.8,0,0,1,3.5,8.161c0,8.661-12.629,13.209-28.208,13.209s-28.212-4.547-28.212-13.209C116.415,326.486,121.3,320.781,128.74,317.234Z" transform="translate(-11.835 -280.421)" fill="#767d22"/>
      <path id="Path_1253" data-name="Path 1253" d="M211.346,357.69c0,7.066,10.581,10.812,23.633,10.812s23.633-3.746,23.633-10.812-10.581-14.773-23.633-14.773S211.346,350.624,211.346,357.69Z" transform="translate(-197.726 -279.019)" fill="#878f27"/>
      <g id="Group_218" data-name="Group 218" transform="translate(15.086 69.621)">
        <path id="Path_1254" data-name="Path 1254" d="M219.429,350.759c-1.886-.642-3.657-1.349-5.291-2.069.144-.115.289-.231.439-.347,1.56.679,3.24,1.344,5.026,1.953,8.405,2.867,20.751,5.033,33.4.05.122.13.244.259.359.391a43.713,43.713,0,0,1-16.312,3.083A54.919,54.919,0,0,1,219.429,350.759Z" transform="translate(-210.503 -348.343)" fill="#737a21"/>
        <path id="Path_1255" data-name="Path 1255" d="M243.235,358.471c-10.138,0-21.65-1.385-31.889-5.971.086-.142.18-.282.274-.42,13.427,5.994,29.07,6.445,40.851,5.529q2.393-.187,4.672-.449l0,.03c0,.158-.012.314-.022.471q-2.245.253-4.6.44C249.627,358.326,246.5,358.471,243.235,358.471Z" transform="translate(-211.346 -348.139)" fill="#737a21"/>
      </g>
      <path id="Path_1256" data-name="Path 1256" d="M152.61,308.46c0,12.793,19.157,20.195,42.788,20.195s42.787-7.4,42.787-20.195S219.03,282.327,195.4,282.327,152.61,295.668,152.61,308.46Z" transform="translate(-115.357 -282.327)" fill="#939c2a"/>
      <g id="Group_219" data-name="Group 219" transform="translate(37.738 3.474)">
        <path id="Path_1257" data-name="Path 1257" d="M188.423,295.392a84.193,84.193,0,0,1-15.162-1.367c.16-.141.32-.283.483-.422a89.664,89.664,0,0,0,44.069-3.623,103.752,103.752,0,0,0,10.876-4.36c.217.078.428.163.644.244a104.15,104.15,0,0,1-11.346,4.578A93.281,93.281,0,0,1,188.423,295.392Z" transform="translate(-166.021 -285.621)" fill="#767d22"/>
        <path id="Path_1258" data-name="Path 1258" d="M181.184,307.656a76,76,0,0,1-23.985-3.505c.042-.16.1-.317.147-.476,17.472,5.853,38.663,3.364,55.025-.4a222.34,222.34,0,0,0,24.738-7.31c.118.133.227.268.342.4a223.15,223.15,0,0,1-24.961,7.39A142.342,142.342,0,0,1,181.184,307.656Z" transform="translate(-157.199 -285.056)" fill="#767d22"/>
        <path id="Path_1259" data-name="Path 1259" d="M154.763,326.2c-.431-.074-.855-.157-1.279-.238,22.606-4.577,46.351-16.508,59.718-23.985.063.16.133.318.192.479-5.871,3.295-13.717,7.436-22.541,11.413C180.564,318.508,167.667,323.468,154.763,326.2Z" transform="translate(-129.225 -284.728)" fill="#767d22"/>
      </g>
      <path id="Path_1260" data-name="Path 1260" d="M238.055,315.123c-5.94,8.144-21.723,12.7-40.265,12.7-23.631,0-42.788-7.4-42.788-20.195a16.882,16.882,0,0,1,3.827-10.095C181.436,327.641,224.306,318.9,238.055,315.123Z" transform="translate(-117.749 -281.497)" fill="#767d22"/>
      <path id="Path_1261" data-name="Path 1261" d="M211.346,357.976c4.434,3.271,11.683,5.771,23.309,3.865,15.034-2.465,18.361-8.678,18.55-13.381,3.36,2.634,5.377,5.841,5.377,8.927,0,7.066-10.581,10.812-23.633,10.812C222.266,368.2,211.919,364.659,211.346,357.976Z" transform="translate(-197.697 -278.716)" fill="#767d22"/>
    </g>
    <g id="Group_243" data-name="Group 243" transform="translate(539.058 161.604)">
      <g id="Content" transform="translate(746.203 163.997)">
        <path id="Path_1395" data-name="Path 1395" d="M756.654,194.191a8.568,8.568,0,0,0-1.559,1.6,1.009,1.009,0,0,0-1.5.317c-.573,1-1.179,1.981-1.767,2.975a21.313,21.313,0,0,1-6.376,3.342c-.707.222-.846,1.434,0,1.57a6.837,6.837,0,0,0,3.8-.609,257.979,257.979,0,0,1-34.015,43.191.826.826,0,0,0,1.166,1.168,232.105,232.105,0,0,0,36.054-45.535c-.56,2.394-.945,4.854-1.65,6.931-.432,1.273,1.391,1.9,2.07.872,2.72-4.095,1.5-9.527,4.664-13.373.265-.282.521-.558.756-.808C759.35,194.71,757.807,193.3,756.654,194.191Z" transform="translate(-680.477 -193.908)" fill="#e1eefc"/>
        <path id="Path_1396" data-name="Path 1396" d="M726.791,457.381c-4-2.6-7.6-5.779-11.523-8.484-.778-.537-1.745.708-1.013,1.312,3.116,2.567,6.371,4.98,9.482,7.558-.6.125-1.211.232-1.816.337-12.788-5.353-22.863-14.455-31.849-24.821-.711-.82-1.856.362-1.181,1.182,8.175,9.913,17.631,18.547,29.156,24.2-3.494.43-7.007.707-10.507,1.2-1.294.181-.988,2.449.31,2.285,6.242-.791,12.575-1.013,18.67-2.69A1.15,1.15,0,0,0,726.791,457.381Z" transform="translate(-688.685 -119.321)" fill="#e1eefc"/>
        <path id="Path_1397" data-name="Path 1397" d="M819.922,371.94a1.167,1.167,0,0,0-2.161-.585,48.69,48.69,0,0,1-9.283,11.4,2.359,2.359,0,0,0-.987.975c-.379.728.45,1.805,1.229,1.229.636-.471,1.246-.967,1.842-1.476a4.839,4.839,0,0,0,.724-.373.789.789,0,0,0,.333-.577,47.022,47.022,0,0,0,5.972-6.869q-.006,1.559-.009,3.117a1.1,1.1,0,0,0-.66.466c-5.683,8.4-11.245,16.9-16.8,25.385-4.714,7.2-10.169,14.769-12.732,23.073-.308,1,1.147,1.333,1.522.42,6.818-16.607,19.338-30.4,28.66-45.63q0,2.155-.013,4.312a1.205,1.205,0,0,0,2.409,0C819.953,381.853,819.95,376.9,819.922,371.94Z" transform="translate(-657.908 -138.728)" fill="#e1eefc"/>
        <path id="Path_1398" data-name="Path 1398" d="M722.632,510.542c-4.158,3.933-9.258,6.346-14.294,8.929-1.26.646-.155,2.5,1.1,1.885,5.219-2.547,10.4-5.337,14.569-9.437C724.907,511.036,723.542,509.68,722.632,510.542Z" transform="translate(-682.728 -95.22)" fill="#e1eefc"/>
      </g>
      <g id="Characters" transform="translate(638.942 119.893)">
        <g id="Group_242" data-name="Group 242">
          <path id="Path_1399" data-name="Path 1399" d="M654.139,365.325S638.178,242.982,639.951,233.3s40.243-7.933,40.243-7.933,64.293,137.645,70.584,148.059l-2.582,2.327-69.3-148.637s-32.8,0-36.735,6.123S656.59,364.87,656.59,364.87Z" transform="translate(-638.67 -87.029)" fill="#854a02"/>
          <path id="Path_1400" data-name="Path 1400" d="M752.687,341.11v81.833s-115.442-6.56-113.345-9.184,13.64-83.09,13.64-83.09S727.491,332.31,752.687,341.11Z" transform="translate(-638.826 -54.141)" fill="#854a02"/>
          <path id="Path_1401" data-name="Path 1401" d="M748.764,419.531l-3-.245.106-1.307,1.553.127-.02-.925,1.312-.029Zm-6.923-.565-3.923-.321.108-1.307,3.923.321ZM734,418.324l-3.923-.32.106-1.307,3.923.32Zm-7.845-.64-3.923-.321.106-1.307,3.923.321Zm-7.845-.642-3.923-.32.106-1.307,3.923.32Zm-7.846-.641-3.923-.32.106-1.307,3.923.32Zm-7.845-.64-3.923-.32.106-1.307,3.923.32Zm-7.845-.642-3.923-.32.106-1.307,3.923.32Zm-7.845-.642-3.924-.32.106-1.307,3.924.32Zm-7.846-.64-3.924-.32.108-1.307,3.923.32Zm68.246-.592-.08-3.936,1.312-.026.08,3.936Zm-76.092-.049-3.924-.321.108-1.307,3.923.321Zm-7.847-.643-3.923-.32.106-1.307,3.923.32Zm-7.845-.64-3.923-.32.108-1.307,3.921.32Zm-7.845-.64-3.923-.32.106-1.307,3.923.32Zm-2.709-4.741-1.3-.185.555-3.9,1.3.185Zm102.179-1.157-.08-3.935,1.312-.026.08,3.935ZM646.1,398.738l-1.3-.184.556-3.9,1.3.184ZM747,397.5l-.08-3.935,1.312-.026.08,3.935Zm-99.794-6.558-1.3-.185.556-3.9,1.3.185Zm99.634-1.311-.08-3.936,1.312-.026.08,3.936Zm-98.522-6.482-1.3-.184.556-3.9,1.3.185Zm98.361-1.387-.08-3.935,1.312-.028.08,3.933Zm-97.248-6.406-1.3-.185.555-3.9,1.3.184Zm97.088-1.464-.081-3.935,1.312-.028.081,3.935Zm-95.976-6.329-1.3-.184.556-3.9,1.3.185Zm95.814-1.542-.08-3.936,1.312-.026.08,3.936Zm-94.7-6.251-1.3-.185.555-3.9,1.3.184Zm94.543-1.619-.08-3.936,1.312-.026.08,3.936Zm-93.432-6.174-1.3-.184.556-3.9,1.3.185Zm93.271-1.7-.08-3.935,1.312-.025.08,3.935Zm-92.158-6.094-1.3-.185.556-3.9,1.3.184Zm92-1.776-.08-3.933,1.312-.026.08,3.935ZM654.992,336.4l-1.3-.185.555-3.9,1.3.185Z" transform="translate(-637.462 -53.628)" fill="#663902"/>
          <path id="Path_1402" data-name="Path 1402" d="M706.828,333.753l-2.355,86.554h5.635V333.753Z" transform="translate(-618.5 -53.179)" fill="#703f02"/>
          <path id="Path_1403" data-name="Path 1403" d="M669.871,331.335,658.1,416.784c9.253.778,20.195,1.582,31.186,2.339,4.56-15.712,2.266-80.352,2.266-80.352l46.574,7.212,2.722-3.31a58.713,58.713,0,0,0,0,10.093c.534,3.717,3.771-.3,2.964,3.936s3.011,9.293,3.011,9.293V340.9C730.6,335.237,693.93,332.538,669.871,331.335Z" transform="translate(-632.965 -53.934)" fill="#663902"/>
          <path id="Path_1404" data-name="Path 1404" d="M721.654,332.477l4.221,1.674-2.111,6.4-4.122-.525Z" transform="translate(-613.768 -53.577)" fill="#fff"/>
          <path id="Path_1405" data-name="Path 1405" d="M756.742,311.559c.1.056,4.517,1.021,4.517,1.021a1.818,1.818,0,0,1-1.671,1.749C757.869,314.657,756.742,311.559,756.742,311.559Z" transform="translate(-602.194 -60.103)" fill="#ebaa83"/>
          <path id="Path_1406" data-name="Path 1406" d="M753.568,326.773l-2.294-.984-4.756-5.239,1.277-2.14,7.865,6.641Z" transform="translate(-605.384 -57.966)" fill="#e0966b"/>
          <path id="Path_1407" data-name="Path 1407" d="M762.516,316.936l-4.482,3.477-.765-3.477Z" transform="translate(-602.03 -58.426)" fill="#ffb991"/>
          <path id="Path_1408" data-name="Path 1408" d="M892.593,247.471c5.013,3.469-3.817,21.969-18.285,36.812s-36.551,37.393-36.551,37.393S818.186,326.969,761.684,339c-1.838-1.1-1.75-4.476-1.75-4.476s21.494-1.032,37.7-11.539c17.711-11.48,29.348-12.44,29.348-12.44s27.767-33.166,40.844-45.617S885.528,242.58,892.593,247.471Z" transform="translate(-601.199 -80.493)" fill="#f2a579"/>
          <path id="Path_1409" data-name="Path 1409" d="M746.053,312.129l12.18-.652-4.609,1.814,14.855,2.435a7.109,7.109,0,0,1-.756,3.929c-.228.4-4.02-.506-4.392-.163,4.154,3.22.546,4.592.546,4.592a5.541,5.541,0,0,1-2.733,3.492c.378,1.885-3.485,1.864-3.485,1.864l-14.921-12.378Z" transform="translate(-606.563 -60.129)" fill="#db9165"/>
          <path id="Path_1410" data-name="Path 1410" d="M747.175,312.247c-.218.109-3.057,5.614-3.057,5.614h-4.975s1.014-5.614,3.785-6.762C746.465,312.138,747.175,312.247,747.175,312.247Z" transform="translate(-607.684 -60.246)" fill="#fff"/>
          <path id="Path_1411" data-name="Path 1411" d="M748.765,314.611,757.934,311l8.665,4.871s-10.728-1.372-12.477-.607S749.5,316.327,748.765,314.611Z" transform="translate(-604.683 -60.276)" fill="#f2a579"/>
          <path id="Path_1412" data-name="Path 1412" d="M745.205,320.48s3.28-3.349,4.171-2.394-1.766,4.591-1.766,4.591S745.294,321.913,745.205,320.48Z" transform="translate(-605.793 -58.12)" fill="#f2a579"/>
          <path id="Path_1413" data-name="Path 1413" d="M746.719,321.952s3.82-3.616,4.711-2.661-2.306,4.857-2.306,4.857S746.808,323.384,746.719,321.952Z" transform="translate(-605.321 -57.741)" fill="#f2a579"/>
          <path id="Path_1414" data-name="Path 1414" d="M748.384,323.29s3.494-3.368,4.385-2.413-1.98,4.61-1.98,4.61S748.473,324.723,748.384,323.29Z" transform="translate(-604.801 -57.249)" fill="#f2a579"/>
          <path id="Path_1415" data-name="Path 1415" d="M750.484,324.738s2.106-3.121,3-2.166-.8,4.017-.8,4.017S750.572,326.171,750.484,324.738Z" transform="translate(-604.146 -56.724)" fill="#f2a579"/>
          <path id="Path_1416" data-name="Path 1416" d="M669.2,441.394s2.183,123.762,10.93,140.817l-3.936,3.061s-26.235-75.219-22.737-112.828C667.452,443.581,669.2,441.394,669.2,441.394Z" transform="translate(-634.514 -19.601)" fill="#063361"/>
          <path id="Path_1418" data-name="Path 1418" d="M657.426,182.723l-5.875,37.227,16.074,5.248,4.795-11.481,15.265,3.819-22.76-40.05Z" transform="translate(-635.009 -101.927)" fill="url(#linear-gradient-4)"/>
          <path id="Path_1419" data-name="Path 1419" d="M811.043,310.794l1.813-5.93h3.2l2.486-6.56,3.087-1.749s47.06-59.647,55.267-50.114c12.272,14.254-44.19,64.353-44.19,64.353l-1.155,5.878s-3.608-.656-4.92,2.406a50.021,50.021,0,0,1-2.186,4.592l-2.632-1.748S812.728,313.88,811.043,310.794Z" transform="translate(-585.255 -80.738)" fill="url(#linear-gradient-5)"/>
          <path id="Path_1420" data-name="Path 1420" d="M838.175,438.676s28.35,39.206,37.65,61.9,26.826,76.607,26.826,76.607l2.371-1.123s-4.974-23.775-7.95-49.464c-1.982-17.108.222-40.392-8.353-62.674-4.3-11.176-14.262-20.134-22.9-31.884C848.24,430.688,838.175,438.676,838.175,438.676Z" transform="translate(-576.791 -22.568)" fill="url(#radial-gradient)"/>
          <path id="Path_1481" data-name="Path 1481" d="M316.421,528.081l7.632-1.827s-8.622-79-7.757-81.428-23.6-29.572-26.762-56.838c-1.4-.718-2.281,68.462-2.281,68.462s11.127,20.944,17.4,37.572S316.421,528.081,316.421,528.081Z" fill="#063361"/>
          <path id="Path_1421" data-name="Path 1421" d="M846.583,437.985s3.462,42.856,2.15,67.346-8.309,79.592-8.309,79.592h2.624s5.686-23.615,13.995-48.105a244.445,244.445,0,0,0,12.55-60.461c.9-11.941-7.624-24.056-10.4-38.372C843.887,429.239,846.583,437.985,846.583,437.985Z" transform="translate(-576.089 -21.877)" fill="#ffb991"/>
          <path id="Path_1422" data-name="Path 1422" d="M837.065,354.934s-4.2,128.513-3.042,128.526c22,30.953,10.417,104.583,10.417,104.583h8.3s21.872-72.3,22.033-78.059-8.189-20.705-7.817-39.051-2.888-20.226,6.15-52.748,15.316-41.269,15.316-57.887c-6.518-15.791-24.646-31.815-24.646-31.815Z" transform="translate(-577.137 -54.824)" fill="url(#linear-gradient-6)"/>
          <path id="Path_1424" data-name="Path 1424" d="M848.884,547.993l-2.574-1.039s-21.959,0-23.223,4.076h26.465Z" transform="translate(-581.498 13.329)" fill="#402505"/>
          <path id="Path_1425" data-name="Path 1425" d="M890.641,542.9s-3.2,3.592-4.618,4.876c-3.116,2.827-9.021,3.335-9.349,4.866,2.46,1.038,9.02,0,12.629-3.42,1.178-1.115,5.412-5.856,5.412-5.856l-1.7-1.589Z" transform="translate(-564.781 11.714)" fill="#402505"/>
          <path id="Path_1426" data-name="Path 1426" d="M827.077,222.244s3.052,6.206,6.484,9.638c6.587-9.429,7.615-16.988,7.615-16.988Z" transform="translate(-580.253 -90.258)" fill="#faefe8"/>
          <path id="Path_1427" data-name="Path 1427" d="M849.193,248.966c2.272-5.248,1.879-31.533,1.059-36.5,8.171-2.985,21.549-7.618,21.549-7.618s-7.4,39.725-5.9,45.426C859.665,251.59,849.193,248.966,849.193,248.966Z" transform="translate(-573.354 -93.39)" fill="url(#linear-gradient-7)"/>
          <path id="Path_1428" data-name="Path 1428" d="M858.155,238.714s-8.4,18.367-14.706,25.911S825.33,292.184,824.674,293.5c2.624,5.248,8.857,11.481,14.433,11.809,0,13.12,1.824,86.252,1.824,86.252s20.152-13.113,26.711-34.76c-8.528-22.631-8.528-41.661-7.872-47.893s16.4-36.079,17.055-38.7-.984-25.911-3.28-30.175S858.155,238.714,858.155,238.714Z" transform="translate(-581.003 -83.138)" fill="#003a78"/>
          <path id="Path_1430" data-name="Path 1430" d="M859.545,238.805l-17.219,19.3,10.322-19.624Z" transform="translate(-575.496 -82.901)" fill="#fb0"/>
          <path id="Path_1431" data-name="Path 1431" d="M819.112,229.706s8.948-3.906,9.5-8.614c1.2-10.19-3.024-26.671-3.024-26.671l15.644-18.378c14.576-3,39.642-15.254,52.524-4.072,4.74,14.178.054,33.22.054,33.22l-17.919,7.5s-3.936,26.463-10.669,32.487c-5.959,5.329-16.559,10.671-25.052,10.485-3.561-6.246-6.331-8.538-6.331-8.538.168.253,8.133-15.425,8.133-15.425l-13.487,7.369a12.182,12.182,0,0,1-1.308-4.167S819.073,234.853,819.112,229.706Z" transform="translate(-582.738 -105.088)" fill="#ffb991"/>
          <path id="Path_1432" data-name="Path 1432" d="M871.553,216.276s-.779,1.259-12.792-1.838c-6.435-10.074-2.3-32.937-22.789-34.736l20.688-24.076c11.646,3.532,40.731,16.364,45.257,31.1,12.053-28.179,21.525-12.959,27.535-2.2,1.646,2.948-5.336,33.365,6.527,54.892-2.178,3.865-15.829-6.042-21.649-17.655-4.564-9.1-6.437-23.6-11.184-31.241.984,36.445-10.526,45.819-26.664,38.128C873.2,216.655,871.553,216.276,871.553,216.276Z" transform="translate(-577.478 -108.746)" fill="#381d11"/>
          <path id="Path_1433" data-name="Path 1433" d="M924.793,181.367a7.861,7.861,0,0,1,2.359.345,8.857,8.857,0,0,0-.239-1.145,9.257,9.257,0,0,0-2.131-.248c-8.585.08-19.8-1.437-24.018,3.145l.014-.045-.712.812c-.447.5-.77.87-.932,1.057a5.343,5.343,0,0,1-3.115-.029c-.383-.154-1.746-.973-3.471-2.013-5.267-3.171-15.074-9.075-21.366-10.8-6.94-1.9-21.86,4.546-27.506,7.179.3.243.592.5.871.758,5.842-2.686,19.985-8.676,26.358-6.926,6.152,1.685,15.877,7.54,21.1,10.686,2.078,1.25,3.183,1.912,3.624,2.086a5.01,5.01,0,0,0,1.862.329c.163,0,.319-.008.471-.017-3.023,3.1-11.754,11.239-17.332,8.066-6.363-3.62-23.281,1.568-28.416,3.276q.116.52.23,1.035c4.886-1.618,21.711-6.785,27.666-3.4s14.469-4.089,18.049-7.671c-1.639,4.8-5.485,16.014-7.748,22.238-2.777,7.643-15.062,6.543-15.187,6.534l-.1,1.046c.122.012.863.079,1.973.079,3.8,0,11.937-.79,14.3-7.3,2.731-7.516,7.768-22.287,8.453-24.3,8.492-3.534,21.078,20.39,26.876,23.292.114-.342-.309-1.44-.2-1.79-5.578-2.8-16.828-25.665-25.325-23.093C905.05,180.351,916.479,181.445,924.793,181.367Z" transform="translate(-575.075 -104.951)" fill="#24120a"/>
          <path id="Path_1434" data-name="Path 1434" d="M859.544,203.777a16.333,16.333,0,0,1,5.481-6.1,14.72,14.72,0,0,1,10.173,2.705c1.435,5.147-6.078,23.548-15.01,15.725C858.642,205.389,859.544,203.777,859.544,203.777Z" transform="translate(-570.207 -95.638)" fill="url(#linear-gradient-8)"/>
          <path id="Path_1435" data-name="Path 1435" d="M862.313,211.181a8.331,8.331,0,0,0,3.3-1.4,3.823,3.823,0,0,0,1.637-2.742,2.1,2.1,0,0,0-.357-1.332,3.689,3.689,0,0,0-1.155-1.034,8.136,8.136,0,0,0-1.527-.737,11.734,11.734,0,0,0-1.653-.475l-1.136-.239.686-.889a9.506,9.506,0,0,1,.971-1.072,8.328,8.328,0,0,1,1.1-.909,6.234,6.234,0,0,1,2.689-1.1,4.328,4.328,0,0,1,2.84.58,5.9,5.9,0,0,1,1.078.891,6.027,6.027,0,0,1,.828,1.073,7.323,7.323,0,0,0-2.208-1.336,3.911,3.911,0,0,0-2.333-.112,5.821,5.821,0,0,0-2.091,1.1,10.532,10.532,0,0,0-.916.816,8.465,8.465,0,0,0-.791.914l-.449-1.13a11.838,11.838,0,0,1,1.888.568,9.371,9.371,0,0,1,1.778.9,5,5,0,0,1,1.486,1.51,3.148,3.148,0,0,1,.413,2.205l-.05.224a2.239,2.239,0,0,1-.077.274,4.421,4.421,0,0,1-.711,1.387A5,5,0,0,1,866,210.4,7.443,7.443,0,0,1,862.313,211.181Z" transform="translate(-569.539 -95.153)" fill="#eb9665"/>
          <path id="Path_1436" data-name="Path 1436" d="M849.36,192.492s-5.254-6.03-12.982-6.722c-6.9-.618-10.566,1.854-10.566,1.854l2.06,2.867s4.411-2.721,8.772-2.55a18.55,18.55,0,0,1,12.239,5.371Z" transform="translate(-580.648 -99.374)" fill="#381d11"/>
          <path id="Path_1437" data-name="Path 1437" d="M831.518,210.14a21.56,21.56,0,0,1-.05-4.177c.05-.624.1-1.307.22-2.019a20.469,20.469,0,0,1,.447-2.247,16.035,16.035,0,0,1,.816-2.4,5.767,5.767,0,0,1,1.859-2.427,2.813,2.813,0,0,1,.948-.422l.134-.033a.745.745,0,0,1,.13-.025l.038,0,.152-.014a3.558,3.558,0,0,1,.387-.024,6.425,6.425,0,0,1,1.481.147,13,13,0,0,1,2.436.777,22.2,22.2,0,0,1,3.811,2.039,20.892,20.892,0,0,1,3.289,2.586s-1.625-.472-3.932-1.27c-1.16-.383-2.5-.844-3.9-1.254a18.152,18.152,0,0,0-2.124-.475,5.925,5.925,0,0,0-.938-.07.978.978,0,0,0-.224.014l-.152.018-.038.005c.122-.017.03,0,.055,0l-.013.007a.662.662,0,0,0-.164.076,4.231,4.231,0,0,0-1.077,1.413,16.765,16.765,0,0,0-.906,2c-.248.689-.522,1.362-.736,2.016s-.43,1.282-.623,1.858C832.092,208.554,831.518,210.14,831.518,210.14Z" transform="translate(-578.906 -96.044)" fill="#381d11"/>
          <path id="Path_1438" data-name="Path 1438" d="M834.77,216.069l3.017,1.758S837.785,215.251,834.77,216.069Z" transform="translate(-577.853 -89.941)" fill="#db9770"/>
          <path id="Path_1439" data-name="Path 1439" d="M832.45,210.655s12.122-10.193,16.8-7.176-10.867,13.037-10.867,13.037Z" transform="translate(-578.577 -93.993)" fill="#ffae80"/>
          <path id="Path_1440" data-name="Path 1440" d="M827.9,209.809l0,0c-2.226,3.785-8.786,6.658-8.786,6.658-.039,5.147,8.066,5.2,8.066,5.2S833.177,214.439,827.9,209.809Z" transform="translate(-582.738 -91.845)" fill="url(#radial-gradient-2)"/>
          <path id="Path_1441" data-name="Path 1441" d="M850.589,239.881l-1.664-5,17.123-.905-.068,7.216h-7.662Z" transform="translate(-573.438 -84.305)" fill="#ebebeb"/>
          <path id="Path_1442" data-name="Path 1442" d="M849.1,234.882l-.731,6.678s12.7,2.585,20.246-1.515a60.175,60.175,0,0,0-2.392-6.068Z" transform="translate(-573.612 -84.305)" fill="#f7f7f7"/>
          <path id="Path_1443" data-name="Path 1443" d="M828.438,395.425a6.252,6.252,0,0,0,6.813,6l59.3-5.017a7.962,7.962,0,0,0,7.016-7.1l2.539-34.583a5.841,5.841,0,0,0-6.078-6.377l-64.943,1.637a6.447,6.447,0,0,0-6.282,6.72Z" transform="translate(-580.34 -48.626)" fill="#fdfdfd"/>
          <circle id="Ellipse_10" data-name="Ellipse 10" cx="5.904" cy="5.904" r="5.904" transform="translate(281.72 319.734)" fill="#c5daf0"/>
          <path id="Path_1444" data-name="Path 1444" d="M858.732,245c5.912-1.486,10.544,13.448,12.184,34.111s2.3,58.386,2.3,58.386,3.427,26.242-19.934,78.72a4.709,4.709,0,0,1-3.353,0,86.536,86.536,0,0,0,3.936-34.767c-1.837-19.229,4.871-42.313,4.871-42.313s-5.983-46.906-6.738-64.946S850.4,247.1,858.732,245Z" transform="translate(-573.126 -80.897)" fill="#ffb991"/>
          <path id="Path_1445" data-name="Path 1445" d="M852.674,375.638a22.065,22.065,0,0,1-2.952,4.428c-1.557,1.64-6.477,4.839-8.609,5.167,1.393,1.885,4.509.82,6.027-.328s2.418-1.067,1.681.656-5.248,7.38-5.658,9.265c3.854,1.067,13.694-.492,13.694-.492s-.017-14.185-.829-18.7A2.526,2.526,0,0,0,852.674,375.638Z" transform="translate(-575.875 -40.318)" fill="#ffb991"/>
          <path id="Path_1446" data-name="Path 1446" d="M857.213,244.1s7.9-2.175,10.953,9.84c3.444,13.556,6.068,64.286,6.506,67.565a7.545,7.545,0,0,0,2.4,4.81l-2.187,2.406,2.187,4.154s-1.749,3.718-1.968,3.062-.875,6.351-.875,6.351-15.978.98-16.221,0-1.052-5.914-.834-6.57S853.325,331,853.325,331l2.762-3.815-2.762-6.56s-.689-36.3-2.352-44.387S848.064,248.339,857.213,244.1Z" transform="translate(-573.164 -81.196)" fill="#f7f7f7"/>
          <path id="Path_1447" data-name="Path 1447" d="M863.525,210.477s-2.515,3.062,0,4.592S863.525,210.477,863.525,210.477Z" transform="translate(-569.232 -91.636)" fill="#f7f7f7"/>
          <path id="Path_1448" data-name="Path 1448" d="M657.315,343.727l-8.309,10.934s19.88,37.21,14.431,75.218c-7.146,49.854-17.927,69.1-19.677,75.218,1.312,20.554,17.927,110.642,17.927,110.642l4.862-2.392s-3.109-75.888,7.386-114.372,18.163-86.59,18.255-132.289A192.811,192.811,0,0,0,657.315,343.727Z" transform="translate(-637.439 -50.068)" fill="url(#linear-gradient-9)"/>
          <path id="Path_1450" data-name="Path 1450" d="M662.288,549.553l20-1.326,2.842,3.717H657.426Z" transform="translate(-633.176 13.726)" fill="#bd2d2d"/>
          <path id="Path_1451" data-name="Path 1451" d="M677.954,549.553l20-1.326,2.842,3.717H673.092Z" transform="translate(-628.289 13.726)" fill="#bd2d2d"/>
          <path id="Path_1452" data-name="Path 1452" d="M663.424,311.974l75.767,26.9-2.624,9.84-71.83-13.778Z" transform="translate(-631.305 -59.973)" fill="#003a78"/>
          <path id="Path_1453" data-name="Path 1453" d="M656.214,207.071S643.339,232.2,639.4,240.4c-1.64,28.207,26.983,106.125,28.746,120.135s-15.627,30.411-15.627,30.411l41.326,22.085s.328-36.845,0-57.508,3.08-71.829,2.524-85.933c-3.508-17.055-23.83-55.612-23.83-55.612Z" transform="translate(-638.819 -92.698)" fill="url(#linear-gradient-10)"/>
          <path id="Path_1454" data-name="Path 1454" d="M681.356,296.043c0,1.829-.642,3.31-1.433,3.31s-1.433-1.481-1.433-3.31.641-3.309,1.433-3.309S681.356,294.215,681.356,296.043Z" transform="translate(-626.605 -65.975)" fill="#854a02"/>
          <path id="Path_1455" data-name="Path 1455" d="M649.733,209.14l23.042,10.59v-7.363l-18.708-11.928Z" transform="translate(-635.576 -94.767)" fill="#eaf1f4"/>
          <path id="Path_1456" data-name="Path 1456" d="M645.925,235.228s15.617-9.512,26.668-2.952c3.835,23.943,20,86.261,20,86.261l79.829,17.871a56.123,56.123,0,0,1-3.171,7.384c-7.216.984-77.733-.656-91.509-5.248C665.932,319.192,646.581,253.621,645.925,235.228Z" transform="translate(-636.764 -85.555)" fill="url(#linear-gradient-11)"/>
          <path id="Path_1457" data-name="Path 1457" d="M681.9,133.122c10.452,0,16.6-.189,20.162,6.938,4.319,8.638,9.569,21.025,11.212,25.587l-3.326,7.05s4.281,14.559,6.419,19.311,4.811,13.425,4.811,13.425a52,52,0,0,1-7.92-.493c-2.138,10.454-7.84,39.122-15.917,39.6s-29.22-21.856-33.5-47.748c-14.967-8.553-24.23-22.806-21.856-32.071S665.743,133.122,681.9,133.122Z" transform="translate(-638.107 -115.767)" fill="url(#linear-gradient-12)"/>
          <path id="Path_1458" data-name="Path 1458" d="M651.958,185l10.569,7.416,12.056-6.221,4.563-36.635-35.974,23.388A111.861,111.861,0,0,0,651.958,185Z" transform="translate(-637.622 -110.638)" fill="#ab755c"/>
          <path id="Path_1459" data-name="Path 1459" d="M692.169,168.214s.214,7.84-3.617,11.314a23.472,23.472,0,0,0-7.058-7.914l.466-2.421S690,167.859,692.169,168.214Z" transform="translate(-625.668 -104.838)" fill="#fff"/>
          <path id="Path_1460" data-name="Path 1460" d="M670.206,177.485l-1.131,11.251,39.319,2.364s.144,17.021-2.686,24.749c-.146.4-1.433.345-1.589.748-2.179,5.584-5.336,16.479-9.788,19.426-.517.342.518-.277,0,0-10.438,5.569-16.825-13.043-17.164-13.721-.356-.712-19.966-31.039-19.966-31.039l1.782-8.314Z" transform="translate(-633.246 -101.927)" fill="#5e2810"/>
          <path id="Path_1461" data-name="Path 1461" d="M691.161,187.2,687.7,203.768h-1.637l-14.278,11.416c-.028.008.613.827.559.88l14.09-11.245h2.12l3.666-17.559Z" transform="translate(-630.423 -98.898)" fill="#4a1f0d"/>
          <path id="Path_1462" data-name="Path 1462" d="M679.142,167.1v2.138a67.967,67.967,0,0,1,12.776-7.445c6.317-2.585,9.648-1.725,9.648-1.725L698.1,150.99a64.494,64.494,0,0,0-8.284,5.668C685.29,160.116,679.142,167.1,679.142,167.1Z" transform="translate(-626.402 -110.193)" fill="#5e2810"/>
          <path id="Path_1489" data-name="Path 1489" d="M5.85,62.237S-1.633,56.9,4.07,41.315,29.837,15.449,40.929,2.5s11.4-18.147,11.4-18.147a25.114,25.114,0,0,1,15,24.2c-.343,9.95-3.368,15.754-3.368,15.754L28.638,47.352Z" transform="translate(0 0)" fill="#5e2810"/>
          <path id="Path_1463" data-name="Path 1463" d="M689.245,168.174s-3.042,2.3-4.326,7.807a28.585,28.585,0,0,1,2.653,3.78s3.73-3.772,3.528-11.552C689.711,168.157,689.245,168.174,689.245,168.174Z" transform="translate(-624.599 -104.833)" fill="#451d0c"/>
          <path id="Path_1464" data-name="Path 1464" d="M664.638,172.069c.177.53-5.729-4.175-12.521-.653-4.1,6.4-1.971,11.463-.544,14.076s8.97,4.055,8.892,3.717S664.638,172.069,664.638,172.069Z" transform="translate(-635.576 -104.232)" fill="#ffb991"/>
          <path id="Path_1465" data-name="Path 1465" d="M658.607,181.747a4.855,4.855,0,0,1-1.485-.394,3.927,3.927,0,0,1-1.338-.9,2.716,2.716,0,0,1-.487-.714,2.662,2.662,0,0,1-.264-.85,3.259,3.259,0,0,1,.009-.883l.025-.22.059-.223.1-.365a4.459,4.459,0,0,1,.405-.816,4.67,4.67,0,0,1,.51-.687,5.924,5.924,0,0,1,1.261-1.081,9.444,9.444,0,0,1,1.422-.769,9.143,9.143,0,0,1,1.54-.513l-.289,1.217a7.464,7.464,0,0,0-.891-.613,7.717,7.717,0,0,0-.972-.522,5.7,5.7,0,0,0-1.022-.366,3.206,3.206,0,0,0-.523-.118,3.813,3.813,0,0,0-.529-.058,4.618,4.618,0,0,0-1.055.091c-.176.037-.337.115-.512.171a2.383,2.383,0,0,0-.5.235,2.469,2.469,0,0,0-.483.3l-.449.366a3.561,3.561,0,0,0-.411.421l-.417.438.261-.548a2.835,2.835,0,0,1,.307-.534l.379-.5a3.047,3.047,0,0,1,.45-.451,2.185,2.185,0,0,1,.516-.394,5.758,5.758,0,0,1,.584-.311l.634-.216c.216-.047.44-.067.661-.1a4.705,4.705,0,0,1,.666-.012,4.071,4.071,0,0,1,.659.064,6.177,6.177,0,0,1,1.261.337,8.046,8.046,0,0,1,1.177.529,8.416,8.416,0,0,1,1.1.72l1.1.859-1.391.358a11.149,11.149,0,0,0-1.3.457,8.033,8.033,0,0,0-1.231.626,6.54,6.54,0,0,0-1.059.812,3.5,3.5,0,0,0-.421.487c-.151.172-.2.333-.32.495l-.139.348c-.017.039-.058.157-.056.133l-.034.152a2.167,2.167,0,0,0-.087.609,2.091,2.091,0,0,0,.084.6,1.894,1.894,0,0,0,.262.579A5.108,5.108,0,0,0,658.607,181.747Z" transform="translate(-634.771 -103.696)" fill="#e89e74"/>
          <path id="Path_1466" data-name="Path 1466" d="M681.849,169.23s9.3-1.732,13.219-1.018a5.685,5.685,0,0,1-2.186,2.527Z" transform="translate(-625.557 -104.874)" fill="#261a11"/>
          <path id="Path_1468" data-name="Path 1468" d="M683.828,187.089a83.069,83.069,0,0,0,12.6,14.365l1.521-7.207-14.122-7.462Z" transform="translate(-624.94 -99.026)" fill="#fff"/>
          <path id="Path_1469" data-name="Path 1469" d="M701.321,188.724s2.89,6.6,2.562,9.875c-9.293,0-24.006-13.495-24.006-13.495Z" transform="translate(-626.172 -99.551)" fill="#823717"/>
          <path id="Path_1470" data-name="Path 1470" d="M674.25,186.355c-.463,3.824.377,10.6-8.9,17.138.13.337.447.717.577,1.055,9.833-6.8,8.9-14.128,9.376-18.129Z" transform="translate(-631.618 -99.16)" fill="#4a1f0d"/>
          <path id="Path_1471" data-name="Path 1471" d="M680.625,151.981l1.19-.774c.016-3.46-.294-10.224-2.852-12.575a3.185,3.185,0,0,0-2.709-.845c-6.116.879-26.559,29.779-30.579,37.08l2.842-1.668c4.4-7.988,22.6-33.481,27.9-34.243a2,2,0,0,1,1.744.546C680.379,141.535,680.7,148.345,680.625,151.981Z" transform="translate(-637.164 -114.323)" fill="#4a1f0d"/>
          <path id="Path_1472" data-name="Path 1472" d="M695.3,147.594c-1.144-6.949-4.3-22.737-9.375-22.752h-.005c-7.622,0-40.651,40.354-44.82,47.929l.646,2.371c4.857-8.819,37.462-49.118,44.174-49.118h0c3.536.009,6.78,12.792,8.3,22.274Z" transform="translate(-638.942 -118.349)" fill="#4a1f0d"/>
          <path id="Path_1473" data-name="Path 1473" d="M649.88,349.632l10.6,5.189s-4.278,9.52-9.84,6.341C646.815,358.974,649.88,349.632,649.88,349.632Z" transform="translate(-635.892 -48.226)" fill="#003a78"/>
          <path id="Path_1474" data-name="Path 1474" d="M760.379,321.6l-5.3-2.722,4.833,3.265.114-.368Z" transform="translate(-602.713 -57.82)" fill="#d49068"/>
          <path id="Path_1475" data-name="Path 1475" d="M758.178,324.508l-4.535-3.906,4.1,4.13Z" transform="translate(-603.161 -57.282)" fill="#d49068"/>
          <path id="Path_1476" data-name="Path 1476" d="M725.127,333.753s3.772,1.968,4.592,3.936,1.64,13.12,1.968,14.1-1.8,13.12-2.3,13.447-2.132-.984-2.132-2.132c-.82-.656-2.46-1.968-2.132-3.936s1.148-7.216,1.476-8.036.984-8.2-.29-8.069c-2.662.279-1.351,6.2-1.187,7.675s-2.907,1.87-2.907,1.87a60.955,60.955,0,0,1,0-8.856,19.769,19.769,0,0,1,.8-3.608Z" transform="translate(-613.019 -53.18)" fill="#ebaa83"/>
          <path id="Path_1477" data-name="Path 1477" d="M681.356,343.287c0,1.828-.642,3.31-1.433,3.31s-1.433-1.483-1.433-3.31.641-3.31,1.433-3.31S681.356,341.46,681.356,343.287Z" transform="translate(-626.605 -51.238)" fill="#b1cfef"/>
          <path id="Path_1478" data-name="Path 1478" d="M681.356,319.665c0,1.829-.642,3.31-1.433,3.31s-1.433-1.481-1.433-3.31.641-3.31,1.433-3.31S681.356,317.837,681.356,319.665Z" transform="translate(-626.605 -58.607)" fill="#b1cfef"/>
          <path id="Path_1479" data-name="Path 1479" d="M681.356,272.422c0,1.828-.642,3.31-1.433,3.31s-1.433-1.482-1.433-3.31.641-3.31,1.433-3.31S681.356,270.595,681.356,272.422Z" transform="translate(-626.605 -73.344)" fill="#b1cfef"/>
          <path id="Path_1480" data-name="Path 1480" d="M680.356,248.517c.346,1.795,0,3.372-.781,3.521s-1.687-1.183-2.034-2.978,0-3.372.781-3.521S680.01,246.722,680.356,248.517Z" transform="translate(-626.943 -80.702)" fill="#b1cfef"/>
        </g>
      </g>
    </g>
    <path id="Path_1486" data-name="Path 1486" d="M916.336,420.341h-3.251l-6.751,10.734-8.913-.45-.443-.457-.8.394-2.836-.143,1.342,14.552,18.441-.888V431.419l-2.9-.147Zm-11.107,12.491-2.224,3.537-3.929-4.042Zm5.782.475v8.11l-14.552,1.776-1.774-11.205,9.808,9.51,4.671-8.344Z" transform="translate(796.417 157.329)" fill="#e1eefc"/>
    <g id="Group_246" data-name="Group 246" transform="translate(1661.97 344.874)">
      <path id="Path_1389" data-name="Path 1389" d="M901.07,248.647c-6.69.418-8.781,5.156-8.808,9.2s3.093,10.175,3.093,10.175l1.673,9.9h1.812s.976,2.788,2.115,2.788,2.207-2.788,2.207-2.788h1.818l.969-9.9s4.32-7.666,3.623-11.848S907.76,248.228,901.07,248.647Zm3.067,19.374H901.4l.79-8.224h-2.44s.526,5.974.786,8.224h-3.364s-3.206-9.338-3.791-11.011,3.512-5.994,6.038-6.412,7.928,1.952,8.625,5.3S904.136,268.021,904.136,268.021Z" transform="translate(-884.168 -237.947)" fill="#e1eefc"/>
      <path id="Path_1390" data-name="Path 1390" d="M917.238,246.185l-1.219-1.6-3.58,3.2.457,1.066Z" transform="translate(-884.87 -237.807)" fill="#e1eefc"/>
      <path id="Path_1391" data-name="Path 1391" d="M911.888,263.076l4.036,2.036,1.295-2.341-4.8-1.142Z" transform="translate(-884.851 -238.4)" fill="#e1eefc"/>
      <path id="Path_1392" data-name="Path 1392" d="M885.78,263.952l1.438,2.323,3.2-3.275-.914-1.371Z" transform="translate(-883.943 -238.4)" fill="#e1eefc"/>
      <path id="Path_1393" data-name="Path 1393" d="M883.877,244.865l6.474,4.417.685-.833-5.746-4.575Z" transform="translate(-883.877 -237.783)" fill="#e1eefc"/>
      <path id="Path_1394" data-name="Path 1394" d="M901.752,244.341l.3-6.778h-1.294s.3,6.474.488,6.778Z" transform="translate(-884.464 -237.563)" fill="#e1eefc"/>
    </g>
    <path id="Path_1487" data-name="Path 1487" d="M753.291,255.06,751.2,257.8l3.476,1.8,2.3-1.951,4.428.257,2.007,3.626,3.8-2.1L765.2,255.8l2.076-3.178,2.731.857.469-4.657-2.673-.551-2.819-5.095,1.615-2.585-2.279-1.672-1.614,2.586-4.763-.862-.82-2.7-4.058,2.245,1.069,2.341-2.766,3.561-2.673-.551-.776,4.715,2.387.033Zm3.271-10.8a5.8,5.8,0,1,1-2.267,7.881A5.8,5.8,0,0,1,756.562,244.255Z" transform="translate(388.535 415.113)" fill="#e1eefc"/>
  </g>
</svg>
